{"accessors":[{"bufferView":0,"byteOffset":0,"componentType":5126,"count":1717,"max":[0.04249948671648577,0.149498974551322,0.04249610561723995],"min":[-0.04248750278000086,0.048961921536324476,-0.042493280342792435],"type":"VEC3"},{"bufferView":0,"byteOffset":20604,"componentType":5126,"count":793,"max":[0.004256802730270145,0.048961921536324504,0.004255763313554793],"min":[-0.004256765146549064,0.045156442398342385,-0.004256138560775665],"type":"VEC3"},{"bufferView":0,"byteOffset":30120,"componentType":5126,"count":13892,"max":[0.04249948671648577,0.15000000000000002,0.04249610561723995],"min":[-0.04249081401847839,0.14949897455132188,-0.042493280342792435],"type":"VEC3"},{"bufferView":0,"byteOffset":196824,"componentType":5126,"count":238,"max":[0.0025,0.04515644239834254,0.002499588881589462],"min":[-0.002499661695296615,0.007303998401278679,-0.0024999931689185387],"type":"VEC3"},{"bufferView":0,"byteOffset":199680,"componentType":5126,"count":240,"max":[0.04199948776803187,0.15000000000000005,0.04199925375597168],"min":[-0.04199891014343489,0.14999999999999994,-0.04199841157321668],"type":"VEC3"},{"bufferView":0,"byteOffset":202560,"componentType":5126,"count":1549,"max":[0.007300159808256048,0.007303998401278724,0.00729985494283594],"min":[-0.0072999740195966965,0.002307993607669755,-0.007298293852785873],"type":"VEC3"},{"bufferView":0,"byteOffset":221148,"componentType":5126,"count":13188,"max":[0.04049945145545392,0.15000000000000005,0.040486302121456944],"min":[-0.040499434249304085,0.14950109813829268,-0.04048576319705086],"type":"VEC3"},{"bufferView":0,"byteOffset":379404,"componentType":5126,"count":426,"max":[0.04,0.002307993607669781,0.03999613538825524],"min":[-0.03998454229978216,0.0009999999999999911,-0.03999613538825524],"type":"VEC3"},{"bufferView":0,"byteOffset":384516,"componentType":5126,"count":964,"max":[0.03999945266136309,0.14950109813829282,0.03999282109110104],"min":[-0.03999249916676292,0.05,-0.039999380837178425],"type":"VEC3"},{"bufferView":0,"byteOffset":396084,"componentType":5126,"count":228,"max":[0.04,0.001000000000000009,0.03999613538825524],"min":[-0.03998454229978216,-8.8809260808132e-18,-0.03999613538825524],"type":"VEC3"},{"bufferView":0,"byteOffset":398820,"componentType":5126,"count":113,"max":[0.04,8.8809260808132e-18,0.03999613538825524],"min":[-0.03998454229978216,-8.8809260808132e-18,-0.03999613538825524],"type":"VEC3"},{"bufferView":0,"byteOffset":400176,"componentType":5126,"count":981,"max":[0.0375,0.12000000000000002,0.03749637692648926],"min":[-0.03748550840604578,0.05,-0.03749637692648932],"type":"VEC3"},{"bufferView":0,"byteOffset":411948,"componentType":5126,"count":113,"max":[0.0375,0.12000000000000002,0.03749637692648926],"min":[-0.03748550840604578,0.11999999999999998,-0.03749637692648932],"type":"VEC3"},{"bufferView":0,"byteOffset":413304,"componentType":5126,"count":226,"max":[0.0018621116316684572,0.0537294715608778,0.001999806769412762],"min":[-0.001861392032640673,0.052270246431180334,-0.001999806769412762],"type":"VEC3"},{"bufferView":0,"byteOffset":416016,"componentType":5126,"count":236,"max":[0.04694996852880089,0.1700385058172078,0.0017999999999999741],"min":[-0.0016752528293766055,0.052343221788062305,-0.0018000000000000255],"type":"VEC3"},{"bufferView":0,"byteOffset":418848,"componentType":5126,"count":236,"max":[0.08478943151332852,0.18112414597667725,0.0017999999999999741],"min":[0.045159768913093125,0.16786902714231616,-0.0018000000000000255],"type":"VEC3"},{"bufferView":0,"byteOffset":421680,"componentType":5126,"count":226,"max":[0.08483943151332853,0.18131772030971435,0.0019998067694127343],"min":[0.08383962473443111,0.17744548530623966,-0.00199980676941279],"type":"VEC3"},{"bufferView":0,"byteOffset":424392,"componentType":5126,"count":333,"max":[0.04560959805125432,0.17112415774008063,0.0017999999999999741],"min":[0.04393433391038756,0.16938197697934337,-0.0018000000000000255],"type":"VEC3"},{"bufferView":0,"byteOffset":428388,"componentType":5126,"count":236,"max":[0.04709889858186161,0.1701114534658594,0.0019999999999999745],"min":[-0.001861392032640673,0.052270246431180334,-0.0020000000000000256],"type":"VEC3"},{"bufferView":0,"byteOffset":431220,"componentType":5126,"count":236,"max":[0.08483943151332853,0.18131772030971435,0.0019999999999999745],"min":[0.04510978789774187,0.1677009216048687,-0.0020000000000000256],"type":"VEC3"},{"bufferView":0,"byteOffset":434052,"componentType":5126,"count":333,"max":[0.045609598051254384,0.17131773338016254,0.0019999999999999745],"min":[0.04374819345029125,0.16938197697934335,-0.0020000000000000256],"type":"VEC3"},{"bufferView":1,"byteOffset":0,"componentType":5126,"count":1717,"type":"VEC3"},{"bufferView":1,"byteOffset":20604,"componentType":5126,"count":793,"type":"VEC3"},{"bufferView":1,"byteOffset":30120,"componentType":5126,"count":13892,"type":"VEC3"},{"bufferView":1,"byteOffset":196824,"componentType":5126,"count":238,"type":"VEC3"},{"bufferView":1,"byteOffset":199680,"componentType":5126,"count":240,"type":"VEC3"},{"bufferView":1,"byteOffset":202560,"componentType":5126,"count":1549,"type":"VEC3"},{"bufferView":1,"byteOffset":221148,"componentType":5126,"count":13188,"type":"VEC3"},{"bufferView":1,"byteOffset":379404,"componentType":5126,"count":426,"type":"VEC3"},{"bufferView":1,"byteOffset":384516,"componentType":5126,"count":964,"type":"VEC3"},{"bufferView":1,"byteOffset":396084,"componentType":5126,"count":228,"type":"VEC3"},{"bufferView":1,"byteOffset":398820,"componentType":5126,"count":113,"type":"VEC3"},{"bufferView":1,"byteOffset":400176,"componentType":5126,"count":981,"type":"VEC3"},{"bufferView":1,"byteOffset":411948,"componentType":5126,"count":113,"type":"VEC3"},{"bufferView":1,"byteOffset":413304,"componentType":5126,"count":226,"type":"VEC3"},{"bufferView":1,"byteOffset":416016,"componentType":5126,"count":236,"type":"VEC3"},{"bufferView":1,"byteOffset":418848,"componentType":5126,"count":236,"type":"VEC3"},{"bufferView":1,"byteOffset":421680,"componentType":5126,"count":226,"type":"VEC3"},{"bufferView":1,"byteOffset":424392,"componentType":5126,"count":333,"type":"VEC3"},{"bufferView":1,"byteOffset":428388,"componentType":5126,"count":236,"type":"VEC3"},{"bufferView":1,"byteOffset":431220,"componentType":5126,"count":236,"type":"VEC3"},{"bufferView":1,"byteOffset":434052,"componentType":5126,"count":333,"type":"VEC3"},{"bufferView":2,"byteOffset":0,"componentType":5123,"count":9411,"type":"SCALAR"},{"bufferView":2,"byteOffset":18824,"componentType":5123,"count":3882,"type":"SCALAR"},{"bufferView":2,"byteOffset":26588,"componentType":5123,"count":82566,"type":"SCALAR"},{"bufferView":2,"byteOffset":191720,"componentType":5123,"count":708,"type":"SCALAR"},{"bufferView":2,"byteOffset":193136,"componentType":5123,"count":720,"type":"SCALAR"},{"bufferView":2,"byteOffset":194576,"componentType":5123,"count":8331,"type":"SCALAR"},{"bufferView":2,"byteOffset":211240,"componentType":5123,"count":78357,"type":"SCALAR"},{"bufferView":2,"byteOffset":367956,"componentType":5123,"count":1776,"type":"SCALAR"},{"bufferView":2,"byteOffset":371508,"componentType":5123,"count":5307,"type":"SCALAR"},{"bufferView":2,"byteOffset":382124,"componentType":5123,"count":678,"type":"SCALAR"},{"bufferView":2,"byteOffset":383480,"componentType":5123,"count":333,"type":"SCALAR"},{"bufferView":2,"byteOffset":384148,"componentType":5123,"count":5454,"type":"SCALAR"},{"bufferView":2,"byteOffset":395056,"componentType":5123,"count":333,"type":"SCALAR"},{"bufferView":2,"byteOffset":395724,"componentType":5123,"count":678,"type":"SCALAR"},{"bufferView":2,"byteOffset":397080,"componentType":5123,"count":702,"type":"SCALAR"},{"bufferView":2,"byteOffset":398484,"componentType":5123,"count":702,"type":"SCALAR"},{"bufferView":2,"byteOffset":399888,"componentType":5123,"count":678,"type":"SCALAR"},{"bufferView":2,"byteOffset":401244,"componentType":5123,"count":1644,"type":"SCALAR"},{"bufferView":2,"byteOffset":404532,"componentType":5123,"count":702,"type":"SCALAR"},{"bufferView":2,"byteOffset":405936,"componentType":5123,"count":702,"type":"SCALAR"},{"bufferView":2,"byteOffset":407340,"componentType":5123,"count":1644,"type":"SCALAR"}],"asset":{"generator":"Open CASCADE Technology 7.8 [dev.opencascade.org]","version":"2.0"},"bufferViews":[{"buffer":0,"byteLength":438048,"byteOffset":0,"byteStride":12,"target":34962},{"buffer":0,"byteLength":438048,"byteOffset":438048,"byteStride":12,"target":34962},{"buffer":0,"byteLength":410628,"byteOffset":876096,"target":34963}],"buffers":[{"byteLength":1286724,"uri":"cocktail.bin"}],"materials":[{"name":"mat_0","pbrMetallicRoughness":{"baseColorFactor":[0.6038273572921753,0.6038273572921753,0.7912984490394592,0.30000001192092896],"metallicFactor":0.0},"doubleSided":true,"alphaMode":"BLEND"},{"name":"mat_1","pbrMetallicRoughness":{"baseColorFactor":[0.6038273572921753,0.6038273572921753,0.7912984490394592,0.6000000238418579],"metallicFactor":0.0},"doubleSided":true,"alphaMode":"BLEND"},{"name":"mat_2","pbrMetallicRoughness":{"baseColorFactor":[0.6038273572921753,0.6038273572921753,0.7912984490394592,1.0]},"doubleSided":true}],"meshes":[{"name":"Body","primitives":[{"attributes":{"NORMAL":21,"POSITION":0},"indices":42,"material":0,"mode":4},{"attributes":{"NORMAL":22,"POSITION":1},"indices":43,"material":0,"mode":4},{"attributes":{"NORMAL":23,"POSITION":2},"indices":44,"material":0,"mode":4},{"attributes":{"NORMAL":24,"POSITION":3},"indices":45,"material":0,"mode":4},{"attributes":{"NORMAL":25,"POSITION":4},"indices":46,"material":0,"mode":4},{"attributes":{"NORMAL":26,"POSITION":5},"indices":47,"material":0,"mode":4},{"attributes":{"NORMAL":27,"POSITION":6},"indices":48,"material":0,"mode":4},{"attributes":{"NORMAL":28,"POSITION":7},"indices":49,"material":0,"mode":4},{"attributes":{"NORMAL":29,"POSITION":8},"indices":50,"material":0,"mode":4},{"attributes":{"NORMAL":30,"POSITION":9},"indices":51,"material":0,"mode":4},{"attributes":{"NORMAL":31,"POSITION":10},"indices":52,"material":0,"mode":4}]},{"name":"Body001","primitives":[{"attributes":{"NORMAL":32,"POSITION":11},"indices":53,"material":1,"mode":4},{"attributes":{"NORMAL":33,"POSITION":12},"indices":54,"material":1,"mode":4}]},{"name":"Body002","primitives":[{"attributes":{"NORMAL":34,"POSITION":13},"indices":55,"material":2,"mode":4},{"attributes":{"NORMAL":35,"POSITION":14},"indices":56,"material":2,"mode":4},{"attributes":{"NORMAL":36,"POSITION":15},"indices":57,"material":2,"mode":4},{"attributes":{"NORMAL":37,"POSITION":16},"indices":58,"material":2,"mode":4},{"attributes":{"NORMAL":38,"POSITION":17},"indices":59,"material":2,"mode":4},{"attributes":{"NORMAL":39,"POSITION":18},"indices":60,"material":2,"mode":4},{"attributes":{"NORMAL":40,"POSITION":19},"indices":61,"material":2,"mode":4},{"attributes":{"NORMAL":41,"POSITION":20},"indices":62,"material":2,"mode":4}]}],"nodes":[{"children":[1,2,3],"name":"cocktail"},{"mesh":0,"name":"Body"},{"mesh":1,"name":"Body001"},{"mesh":2,"name":"Body002"}],"scene":0,"scenes":[{"nodes":[0]}]}