{"accessors":[{"bufferView":0,"byteOffset":0,"componentType":5126,"count":4,"max":[2.6,0.0,2.6],"min":[-2.6,-0.2,2.6],"type":"VEC3"},{"bufferView":0,"byteOffset":48,"componentType":5126,"count":4,"max":[2.6,0.0,2.6],"min":[2.6,-0.2,-2.6],"type":"VEC3"},{"bufferView":0,"byteOffset":96,"componentType":5126,"count":4,"max":[2.6,0.0,-2.6],"min":[-2.6,-0.2,-2.6],"type":"VEC3"},{"bufferView":0,"byteOffset":144,"componentType":5126,"count":4,"max":[-2.6,0.0,2.6],"min":[-2.6,-0.2,-2.6],"type":"VEC3"},{"bufferView":0,"byteOffset":192,"componentType":5126,"count":4,"max":[2.6,0.0,2.6],"min":[-2.6,0.0,-2.6],"type":"VEC3"},{"bufferView":0,"byteOffset":240,"componentType":5126,"count":4,"max":[2.6,-0.2,2.6],"min":[-2.6,-0.2,-2.6],"type":"VEC3"},{"bufferView":0,"byteOffset":288,"componentType":5126,"count":4,"max":[-2.5500000000000003,3.0,2.5500000000000003],"min":[-2.5500000000000003,0.0,-2.5500000000000003],"type":"VEC3"},{"bufferView":0,"byteOffset":336,"componentType":5126,"count":8,"max":[2.5500000000000003,3.0,2.5500000000000003],"min":[-2.5500000000000003,0.0,2.5500000000000003],"type":"VEC3"},{"bufferView":0,"byteOffset":432,"componentType":5126,"count":4,"max":[2.5500000000000003,3.0,-2.5500000000000003],"min":[-2.5500000000000003,0.0,-2.5500000000000003],"type":"VEC3"},{"bufferView":0,"byteOffset":480,"componentType":5126,"count":12,"max":[2.5500000000000003,1.0769163338864019e-17,2.5500000000000003],"min":[-2.5500000000000003,-3.3306690738754697e-19,-2.5500000000000003],"type":"VEC3"},{"bufferView":0,"byteOffset":624,"componentType":5126,"count":8,"max":[2.5500000000000003,3.0,2.5500000000000003],"min":[-2.5500000000000003,3.0,-2.5500000000000003],"type":"VEC3"},{"bufferView":0,"byteOffset":720,"componentType":5126,"count":4,"max":[1.841,2.1,2.5500000000000003],"min":[1.841,-3.3306690738754697e-19,2.45],"type":"VEC3"},{"bufferView":0,"byteOffset":768,"componentType":5126,"count":4,"max":[1.841,2.1,2.5500000000000003],"min":[0.9410000000000001,2.1,2.45],"type":"VEC3"},{"bufferView":0,"byteOffset":816,"componentType":5126,"count":4,"max":[0.9410000000000001,2.1,2.5500000000000003],"min":[0.9410000000000001,-3.3306690738754697e-19,2.45],"type":"VEC3"},{"bufferView":0,"byteOffset":864,"componentType":5126,"count":4,"max":[2.5500000000000003,3.0,2.5500000000000003],"min":[2.5500000000000003,0.0,-2.5500000000000003],"type":"VEC3"},{"bufferView":0,"byteOffset":912,"componentType":5126,"count":8,"max":[2.45,3.0,2.45],"min":[-2.45,-3.3306690738754697e-19,2.45],"type":"VEC3"},{"bufferView":0,"byteOffset":1008,"componentType":5126,"count":4,"max":[2.45,3.0,2.45],"min":[2.45,0.0,-2.45],"type":"VEC3"},{"bufferView":0,"byteOffset":1056,"componentType":5126,"count":4,"max":[2.45,3.0,-2.45],"min":[-2.45,0.0,-2.45],"type":"VEC3"},{"bufferView":0,"byteOffset":1104,"componentType":5126,"count":4,"max":[-2.45,3.0,2.45],"min":[-2.45,0.0,-2.45],"type":"VEC3"},{"bufferView":0,"byteOffset":1152,"componentType":5126,"count":4,"max":[1.841,3.3306690738754695e-17,2.603],"min":[1.792,1.1102230246251566e-17,2.503],"type":"VEC3"},{"bufferView":0,"byteOffset":1200,"componentType":5126,"count":8,"max":[1.841,2.1,2.503],"min":[0.9410000000000001,1.1102230246251566e-17,2.5029999999999997],"type":"VEC3"},{"bufferView":0,"byteOffset":1296,"componentType":5126,"count":4,"max":[1.792,2.051,2.603],"min":[1.792,1.1102230246251566e-17,2.5029999999999997],"type":"VEC3"},{"bufferView":0,"byteOffset":1344,"componentType":5126,"count":8,"max":[1.841,2.1,2.603],"min":[0.9410000000000001,3.3306690738754695e-17,2.6029999999999998],"type":"VEC3"},{"bufferView":0,"byteOffset":1440,"componentType":5126,"count":4,"max":[1.841,2.1,2.603],"min":[1.841,1.1102230246251566e-17,2.5029999999999997],"type":"VEC3"},{"bufferView":0,"byteOffset":1488,"componentType":5126,"count":4,"max":[1.841,2.1,2.6029999999999998],"min":[0.9410000000000001,2.1,2.5029999999999997],"type":"VEC3"},{"bufferView":0,"byteOffset":1536,"componentType":5126,"count":4,"max":[0.9410000000000001,2.1,2.603],"min":[0.9410000000000001,1.1102230246251566e-17,2.5029999999999997],"type":"VEC3"},{"bufferView":0,"byteOffset":1584,"componentType":5126,"count":4,"max":[0.99,3.3306690738754695e-17,2.603],"min":[0.9410000000000001,1.1102230246251566e-17,2.503],"type":"VEC3"},{"bufferView":0,"byteOffset":1632,"componentType":5126,"count":4,"max":[0.99,2.051,2.603],"min":[0.99,1.1102230246251566e-17,2.5029999999999997],"type":"VEC3"},{"bufferView":0,"byteOffset":1680,"componentType":5126,"count":4,"max":[1.792,2.051,2.6029999999999998],"min":[0.99,2.051,2.5029999999999997],"type":"VEC3"},{"bufferView":0,"byteOffset":1728,"componentType":5126,"count":4,"max":[1.792000000000001,1.378262503042581e-16,3.0744037723385627],"min":[1.1137791078966692,2.4321696374324814e-17,2.5625491502812525],"type":"VEC3"},{"bufferView":0,"byteOffset":1776,"componentType":5126,"count":4,"max":[1.1431683705112936,2.051,3.0744037723385627],"min":[1.1137791078966692,1.2884125593982823e-16,3.033952922619815],"type":"VEC3"},{"bufferView":0,"byteOffset":1824,"componentType":5126,"count":4,"max":[1.7920000000000005,2.051,3.0744037723385627],"min":[1.1137791078966692,2.051,2.562549150281252],"type":"VEC3"},{"bufferView":0,"byteOffset":1872,"componentType":5126,"count":4,"max":[1.792000000000001,2.051,2.6029999999999998],"min":[1.7626107373853774,2.4321696374324814e-17,2.562549150281252],"type":"VEC3"},{"bufferView":0,"byteOffset":1920,"componentType":5126,"count":4,"max":[1.7626107373853774,2.051,3.033952922619816],"min":[1.1137791078966692,2.4321696374324814e-17,2.562549150281252],"type":"VEC3"},{"bufferView":0,"byteOffset":1968,"componentType":5126,"count":4,"max":[1.7920000000000011,2.051,3.074403772338563],"min":[1.143168370511293,3.3306690738754646e-17,2.6029999999999998],"type":"VEC3"},{"bufferView":1,"byteOffset":0,"componentType":5126,"count":4,"type":"VEC3"},{"bufferView":1,"byteOffset":48,"componentType":5126,"count":4,"type":"VEC3"},{"bufferView":1,"byteOffset":96,"componentType":5126,"count":4,"type":"VEC3"},{"bufferView":1,"byteOffset":144,"componentType":5126,"count":4,"type":"VEC3"},{"bufferView":1,"byteOffset":192,"componentType":5126,"count":4,"type":"VEC3"},{"bufferView":1,"byteOffset":240,"componentType":5126,"count":4,"type":"VEC3"},{"bufferView":1,"byteOffset":288,"componentType":5126,"count":4,"type":"VEC3"},{"bufferView":1,"byteOffset":336,"componentType":5126,"count":8,"type":"VEC3"},{"bufferView":1,"byteOffset":432,"componentType":5126,"count":4,"type":"VEC3"},{"bufferView":1,"byteOffset":480,"componentType":5126,"count":12,"type":"VEC3"},{"bufferView":1,"byteOffset":624,"componentType":5126,"count":8,"type":"VEC3"},{"bufferView":1,"byteOffset":720,"componentType":5126,"count":4,"type":"VEC3"},{"bufferView":1,"byteOffset":768,"componentType":5126,"count":4,"type":"VEC3"},{"bufferView":1,"byteOffset":816,"componentType":5126,"count":4,"type":"VEC3"},{"bufferView":1,"byteOffset":864,"componentType":5126,"count":4,"type":"VEC3"},{"bufferView":1,"byteOffset":912,"componentType":5126,"count":8,"type":"VEC3"},{"bufferView":1,"byteOffset":1008,"componentType":5126,"count":4,"type":"VEC3"},{"bufferView":1,"byteOffset":1056,"componentType":5126,"count":4,"type":"VEC3"},{"bufferView":1,"byteOffset":1104,"componentType":5126,"count":4,"type":"VEC3"},{"bufferView":1,"byteOffset":1152,"componentType":5126,"count":4,"type":"VEC3"},{"bufferView":1,"byteOffset":1200,"componentType":5126,"count":8,"type":"VEC3"},{"bufferView":1,"byteOffset":1296,"componentType":5126,"count":4,"type":"VEC3"},{"bufferView":1,"byteOffset":1344,"componentType":5126,"count":8,"type":"VEC3"},{"bufferView":1,"byteOffset":1440,"componentType":5126,"count":4,"type":"VEC3"},{"bufferView":1,"byteOffset":1488,"componentType":5126,"count":4,"type":"VEC3"},{"bufferView":1,"byteOffset":1536,"componentType":5126,"count":4,"type":"VEC3"},{"bufferView":1,"byteOffset":1584,"componentType":5126,"count":4,"type":"VEC3"},{"bufferView":1,"byteOffset":1632,"componentType":5126,"count":4,"type":"VEC3"},{"bufferView":1,"byteOffset":1680,"componentType":5126,"count":4,"type":"VEC3"},{"bufferView":1,"byteOffset":1728,"componentType":5126,"count":4,"type":"VEC3"},{"bufferView":1,"byteOffset":1776,"componentType":5126,"count":4,"type":"VEC3"},{"bufferView":1,"byteOffset":1824,"componentType":5126,"count":4,"type":"VEC3"},{"bufferView":1,"byteOffset":1872,"componentType":5126,"count":4,"type":"VEC3"},{"bufferView":1,"byteOffset":1920,"componentType":5126,"count":4,"type":"VEC3"},{"bufferView":1,"byteOffset":1968,"componentType":5126,"count":4,"type":"VEC3"},{"bufferView":2,"byteOffset":0,"componentType":5123,"count":6,"type":"SCALAR"},{"bufferView":2,"byteOffset":12,"componentType":5123,"count":6,"type":"SCALAR"},{"bufferView":2,"byteOffset":24,"componentType":5123,"count":6,"type":"SCALAR"},{"bufferView":2,"byteOffset":36,"componentType":5123,"count":6,"type":"SCALAR"},{"bufferView":2,"byteOffset":48,"componentType":5123,"count":6,"type":"SCALAR"},{"bufferView":2,"byteOffset":60,"componentType":5123,"count":6,"type":"SCALAR"},{"bufferView":2,"byteOffset":72,"componentType":5123,"count":6,"type":"SCALAR"},{"bufferView":2,"byteOffset":84,"componentType":5123,"count":18,"type":"SCALAR"},{"bufferView":2,"byteOffset":120,"componentType":5123,"count":6,"type":"SCALAR"},{"bufferView":2,"byteOffset":132,"componentType":5123,"count":30,"type":"SCALAR"},{"bufferView":2,"byteOffset":192,"componentType":5123,"count":24,"type":"SCALAR"},{"bufferView":2,"byteOffset":240,"componentType":5123,"count":6,"type":"SCALAR"},{"bufferView":2,"byteOffset":252,"componentType":5123,"count":6,"type":"SCALAR"},{"bufferView":2,"byteOffset":264,"componentType":5123,"count":6,"type":"SCALAR"},{"bufferView":2,"byteOffset":276,"componentType":5123,"count":6,"type":"SCALAR"},{"bufferView":2,"byteOffset":288,"componentType":5123,"count":18,"type":"SCALAR"},{"bufferView":2,"byteOffset":324,"componentType":5123,"count":6,"type":"SCALAR"},{"bufferView":2,"byteOffset":336,"componentType":5123,"count":6,"type":"SCALAR"},{"bufferView":2,"byteOffset":348,"componentType":5123,"count":6,"type":"SCALAR"},{"bufferView":2,"byteOffset":360,"componentType":5123,"count":6,"type":"SCALAR"},{"bufferView":2,"byteOffset":372,"componentType":5123,"count":18,"type":"SCALAR"},{"bufferView":2,"byteOffset":408,"componentType":5123,"count":6,"type":"SCALAR"},{"bufferView":2,"byteOffset":420,"componentType":5123,"count":18,"type":"SCALAR"},{"bufferView":2,"byteOffset":456,"componentType":5123,"count":6,"type":"SCALAR"},{"bufferView":2,"byteOffset":468,"componentType":5123,"count":6,"type":"SCALAR"},{"bufferView":2,"byteOffset":480,"componentType":5123,"count":6,"type":"SCALAR"},{"bufferView":2,"byteOffset":492,"componentType":5123,"count":6,"type":"SCALAR"},{"bufferView":2,"byteOffset":504,"componentType":5123,"count":6,"type":"SCALAR"},{"bufferView":2,"byteOffset":516,"componentType":5123,"count":6,"type":"SCALAR"},{"bufferView":2,"byteOffset":528,"componentType":5123,"count":6,"type":"SCALAR"},{"bufferView":2,"byteOffset":540,"componentType":5123,"count":6,"type":"SCALAR"},{"bufferView":2,"byteOffset":552,"componentType":5123,"count":6,"type":"SCALAR"},{"bufferView":2,"byteOffset":564,"componentType":5123,"count":6,"type":"SCALAR"},{"bufferView":2,"byteOffset":576,"componentType":5123,"count":6,"type":"SCALAR"},{"bufferView":2,"byteOffset":588,"componentType":5123,"count":6,"type":"SCALAR"}],"asset":{"generator":"Open CASCADE Technology 7.8 [dev.opencascade.org]","version":"2.0"},"bufferViews":[{"buffer":0,"byteLength":2016,"byteOffset":0,"byteStride":12,"target":34962},{"buffer":0,"byteLength":2016,"byteOffset":2016,"byteStride":12,"target":34962},{"buffer":0,"byteLength":600,"byteOffset":4032,"target":34963}],"buffers":[{"byteLength":4632,"uri":"room4.bin"}],"materials":[{"name":"mat_0","pbrMetallicRoughness":{"baseColorFactor":[0.3049873411655426,0.39675524830818176,0.49102088809013367,1.0]},"doubleSided":true},{"name":"mat_1","pbrMetallicRoughness":{"baseColorFactor":[0.672443151473999,0.672443151473999,0.672443151473999,1.0]},"doubleSided":true},{"name":"mat_2","pbrMetallicRoughness":{"baseColorFactor":[0.168269544839859,0.19120186567306519,0.21586069464683533,1.0]},"doubleSided":true}],"meshes":[{"name":"Slab","primitives":[{"attributes":{"NORMAL":35,"POSITION":0},"indices":70,"material":0,"mode":4},{"attributes":{"NORMAL":36,"POSITION":1},"indices":71,"material":0,"mode":4},{"attributes":{"NORMAL":37,"POSITION":2},"indices":72,"material":0,"mode":4},{"attributes":{"NORMAL":38,"POSITION":3},"indices":73,"material":0,"mode":4},{"attributes":{"NORMAL":39,"POSITION":4},"indices":74,"material":0,"mode":4},{"attributes":{"NORMAL":40,"POSITION":5},"indices":75,"material":0,"mode":4}]},{"name":"壁","primitives":[{"attributes":{"NORMAL":41,"POSITION":6},"indices":76,"material":1,"mode":4},{"attributes":{"NORMAL":42,"POSITION":7},"indices":77,"material":1,"mode":4},{"attributes":{"NORMAL":43,"POSITION":8},"indices":78,"material":1,"mode":4},{"attributes":{"NORMAL":44,"POSITION":9},"indices":79,"material":1,"mode":4},{"attributes":{"NORMAL":45,"POSITION":10},"indices":80,"material":1,"mode":4},{"attributes":{"NORMAL":46,"POSITION":11},"indices":81,"material":1,"mode":4},{"attributes":{"NORMAL":47,"POSITION":12},"indices":82,"material":1,"mode":4},{"attributes":{"NORMAL":48,"POSITION":13},"indices":83,"material":1,"mode":4},{"attributes":{"NORMAL":49,"POSITION":14},"indices":84,"material":1,"mode":4},{"attributes":{"NORMAL":50,"POSITION":15},"indices":85,"material":1,"mode":4},{"attributes":{"NORMAL":51,"POSITION":16},"indices":86,"material":1,"mode":4},{"attributes":{"NORMAL":52,"POSITION":17},"indices":87,"material":1,"mode":4},{"attributes":{"NORMAL":53,"POSITION":18},"indices":88,"material":1,"mode":4}]},{"name":"Door","primitives":[{"attributes":{"NORMAL":54,"POSITION":19},"indices":89,"material":2,"mode":4},{"attributes":{"NORMAL":55,"POSITION":20},"indices":90,"material":2,"mode":4},{"attributes":{"NORMAL":56,"POSITION":21},"indices":91,"material":2,"mode":4},{"attributes":{"NORMAL":57,"POSITION":22},"indices":92,"material":2,"mode":4},{"attributes":{"NORMAL":58,"POSITION":23},"indices":93,"material":2,"mode":4},{"attributes":{"NORMAL":59,"POSITION":24},"indices":94,"material":2,"mode":4},{"attributes":{"NORMAL":60,"POSITION":25},"indices":95,"material":2,"mode":4},{"attributes":{"NORMAL":61,"POSITION":26},"indices":96,"material":2,"mode":4},{"attributes":{"NORMAL":62,"POSITION":27},"indices":97,"material":2,"mode":4},{"attributes":{"NORMAL":63,"POSITION":28},"indices":98,"material":2,"mode":4},{"attributes":{"NORMAL":64,"POSITION":29},"indices":99,"material":2,"mode":4},{"attributes":{"NORMAL":65,"POSITION":30},"indices":100,"material":2,"mode":4},{"attributes":{"NORMAL":66,"POSITION":31},"indices":101,"material":2,"mode":4},{"attributes":{"NORMAL":67,"POSITION":32},"indices":102,"material":2,"mode":4},{"attributes":{"NORMAL":68,"POSITION":33},"indices":103,"material":2,"mode":4},{"attributes":{"NORMAL":69,"POSITION":34},"indices":104,"material":2,"mode":4}]}],"nodes":[{"children":[1,6],"name":"Unnamed"},{"children":[2],"name":"ビルディング"},{"children":[3,4,5],"name":"Level"},{"name":"Sketch"},{"mesh":0,"name":"Slab"},{"mesh":1,"name":"壁"},{"mesh":2,"name":"Door"}],"scene":0,"scenes":[{"nodes":[0]}]}