{"accessors":[{"bufferView":0,"byteOffset":0,"componentType":5126,"count":4,"max":[2.6,0.0,2.6],"min":[-2.6,-0.2,2.6],"type":"VEC3"},{"bufferView":0,"byteOffset":48,"componentType":5126,"count":4,"max":[2.6,0.0,2.6],"min":[2.6,-0.2,-2.6],"type":"VEC3"},{"bufferView":0,"byteOffset":96,"componentType":5126,"count":4,"max":[2.6,0.0,-2.6],"min":[-2.6,-0.2,-2.6],"type":"VEC3"},{"bufferView":0,"byteOffset":144,"componentType":5126,"count":4,"max":[-2.6,0.0,2.6],"min":[-2.6,-0.2,-2.6],"type":"VEC3"},{"bufferView":0,"byteOffset":192,"componentType":5126,"count":4,"max":[2.6,0.0,2.6],"min":[-2.6,0.0,-2.6],"type":"VEC3"},{"bufferView":0,"byteOffset":240,"componentType":5126,"count":4,"max":[2.6,-0.2,2.6],"min":[-2.6,-0.2,-2.6],"type":"VEC3"},{"bufferView":0,"byteOffset":288,"componentType":5126,"count":4,"max":[-2.5500000000000003,3.0,2.5500000000000003],"min":[-2.5500000000000003,0.0,-2.5500000000000003],"type":"VEC3"},{"bufferView":0,"byteOffset":336,"componentType":5126,"count":8,"max":[2.5500000000000003,3.0,2.5500000000000003],"min":[-2.5500000000000003,0.0,2.5500000000000003],"type":"VEC3"},{"bufferView":0,"byteOffset":432,"componentType":5126,"count":4,"max":[2.5500000000000003,3.0,-2.5500000000000003],"min":[-2.5500000000000003,0.0,-2.5500000000000003],"type":"VEC3"},{"bufferView":0,"byteOffset":480,"componentType":5126,"count":12,"max":[2.5500000000000003,1.0769163338864019e-17,2.5500000000000003],"min":[-2.5500000000000003,-3.3306690738754697e-19,-2.5500000000000003],"type":"VEC3"},{"bufferView":0,"byteOffset":624,"componentType":5126,"count":8,"max":[2.5500000000000003,3.0,2.5500000000000003],"min":[-2.5500000000000003,3.0,-2.5500000000000003],"type":"VEC3"},{"bufferView":0,"byteOffset":720,"componentType":5126,"count":4,"max":[1.841,2.1,2.5500000000000003],"min":[1.841,-3.3306690738754697e-19,2.45],"type":"VEC3"},{"bufferView":0,"byteOffset":768,"componentType":5126,"count":4,"max":[1.841,2.1,2.5500000000000003],"min":[0.9410000000000001,2.1,2.45],"type":"VEC3"},{"bufferView":0,"byteOffset":816,"componentType":5126,"count":4,"max":[0.9410000000000001,2.1,2.5500000000000003],"min":[0.9410000000000001,-3.3306690738754697e-19,2.45],"type":"VEC3"},{"bufferView":0,"byteOffset":864,"componentType":5126,"count":4,"max":[2.5500000000000003,3.0,2.5500000000000003],"min":[2.5500000000000003,0.0,-2.5500000000000003],"type":"VEC3"},{"bufferView":0,"byteOffset":912,"componentType":5126,"count":8,"max":[2.45,3.0,2.45],"min":[-2.45,-3.3306690738754697e-19,2.45],"type":"VEC3"},{"bufferView":0,"byteOffset":1008,"componentType":5126,"count":4,"max":[2.45,3.0,2.45],"min":[2.45,0.0,-2.45],"type":"VEC3"},{"bufferView":0,"byteOffset":1056,"componentType":5126,"count":4,"max":[2.45,3.0,-2.45],"min":[-2.45,0.0,-2.45],"type":"VEC3"},{"bufferView":0,"byteOffset":1104,"componentType":5126,"count":4,"max":[-2.45,3.0,2.45],"min":[-2.45,0.0,-2.45],"type":"VEC3"},{"bufferView":1,"byteOffset":0,"componentType":5126,"count":4,"type":"VEC3"},{"bufferView":1,"byteOffset":48,"componentType":5126,"count":4,"type":"VEC3"},{"bufferView":1,"byteOffset":96,"componentType":5126,"count":4,"type":"VEC3"},{"bufferView":1,"byteOffset":144,"componentType":5126,"count":4,"type":"VEC3"},{"bufferView":1,"byteOffset":192,"componentType":5126,"count":4,"type":"VEC3"},{"bufferView":1,"byteOffset":240,"componentType":5126,"count":4,"type":"VEC3"},{"bufferView":1,"byteOffset":288,"componentType":5126,"count":4,"type":"VEC3"},{"bufferView":1,"byteOffset":336,"componentType":5126,"count":8,"type":"VEC3"},{"bufferView":1,"byteOffset":432,"componentType":5126,"count":4,"type":"VEC3"},{"bufferView":1,"byteOffset":480,"componentType":5126,"count":12,"type":"VEC3"},{"bufferView":1,"byteOffset":624,"componentType":5126,"count":8,"type":"VEC3"},{"bufferView":1,"byteOffset":720,"componentType":5126,"count":4,"type":"VEC3"},{"bufferView":1,"byteOffset":768,"componentType":5126,"count":4,"type":"VEC3"},{"bufferView":1,"byteOffset":816,"componentType":5126,"count":4,"type":"VEC3"},{"bufferView":1,"byteOffset":864,"componentType":5126,"count":4,"type":"VEC3"},{"bufferView":1,"byteOffset":912,"componentType":5126,"count":8,"type":"VEC3"},{"bufferView":1,"byteOffset":1008,"componentType":5126,"count":4,"type":"VEC3"},{"bufferView":1,"byteOffset":1056,"componentType":5126,"count":4,"type":"VEC3"},{"bufferView":1,"byteOffset":1104,"componentType":5126,"count":4,"type":"VEC3"},{"bufferView":2,"byteOffset":0,"componentType":5123,"count":6,"type":"SCALAR"},{"bufferView":2,"byteOffset":12,"componentType":5123,"count":6,"type":"SCALAR"},{"bufferView":2,"byteOffset":24,"componentType":5123,"count":6,"type":"SCALAR"},{"bufferView":2,"byteOffset":36,"componentType":5123,"count":6,"type":"SCALAR"},{"bufferView":2,"byteOffset":48,"componentType":5123,"count":6,"type":"SCALAR"},{"bufferView":2,"byteOffset":60,"componentType":5123,"count":6,"type":"SCALAR"},{"bufferView":2,"byteOffset":72,"componentType":5123,"count":6,"type":"SCALAR"},{"bufferView":2,"byteOffset":84,"componentType":5123,"count":18,"type":"SCALAR"},{"bufferView":2,"byteOffset":120,"componentType":5123,"count":6,"type":"SCALAR"},{"bufferView":2,"byteOffset":132,"componentType":5123,"count":30,"type":"SCALAR"},{"bufferView":2,"byteOffset":192,"componentType":5123,"count":24,"type":"SCALAR"},{"bufferView":2,"byteOffset":240,"componentType":5123,"count":6,"type":"SCALAR"},{"bufferView":2,"byteOffset":252,"componentType":5123,"count":6,"type":"SCALAR"},{"bufferView":2,"byteOffset":264,"componentType":5123,"count":6,"type":"SCALAR"},{"bufferView":2,"byteOffset":276,"componentType":5123,"count":6,"type":"SCALAR"},{"bufferView":2,"byteOffset":288,"componentType":5123,"count":18,"type":"SCALAR"},{"bufferView":2,"byteOffset":324,"componentType":5123,"count":6,"type":"SCALAR"},{"bufferView":2,"byteOffset":336,"componentType":5123,"count":6,"type":"SCALAR"},{"bufferView":2,"byteOffset":348,"componentType":5123,"count":6,"type":"SCALAR"}],"asset":{"generator":"Open CASCADE Technology 7.8 [dev.opencascade.org]","version":"2.0"},"bufferViews":[{"buffer":0,"byteLength":1152,"byteOffset":0,"byteStride":12,"target":34962},{"buffer":0,"byteLength":1152,"byteOffset":1152,"byteStride":12,"target":34962},{"buffer":0,"byteLength":360,"byteOffset":2304,"target":34963}],"buffers":[{"byteLength":2664,"uri":"room2.bin"}],"materials":[{"name":"mat_0","pbrMetallicRoughness":{"baseColorFactor":[0.3049873411655426,0.39675524830818176,0.49102088809013367,1.0]},"doubleSided":true},{"name":"mat_1","pbrMetallicRoughness":{"baseColorFactor":[0.672443151473999,0.672443151473999,0.672443151473999,1.0]},"doubleSided":true}],"meshes":[{"name":"Slab","primitives":[{"attributes":{"NORMAL":19,"POSITION":0},"indices":38,"material":0,"mode":4},{"attributes":{"NORMAL":20,"POSITION":1},"indices":39,"material":0,"mode":4},{"attributes":{"NORMAL":21,"POSITION":2},"indices":40,"material":0,"mode":4},{"attributes":{"NORMAL":22,"POSITION":3},"indices":41,"material":0,"mode":4},{"attributes":{"NORMAL":23,"POSITION":4},"indices":42,"material":0,"mode":4},{"attributes":{"NORMAL":24,"POSITION":5},"indices":43,"material":0,"mode":4}]},{"name":"壁","primitives":[{"attributes":{"NORMAL":25,"POSITION":6},"indices":44,"material":1,"mode":4},{"attributes":{"NORMAL":26,"POSITION":7},"indices":45,"material":1,"mode":4},{"attributes":{"NORMAL":27,"POSITION":8},"indices":46,"material":1,"mode":4},{"attributes":{"NORMAL":28,"POSITION":9},"indices":47,"material":1,"mode":4},{"attributes":{"NORMAL":29,"POSITION":10},"indices":48,"material":1,"mode":4},{"attributes":{"NORMAL":30,"POSITION":11},"indices":49,"material":1,"mode":4},{"attributes":{"NORMAL":31,"POSITION":12},"indices":50,"material":1,"mode":4},{"attributes":{"NORMAL":32,"POSITION":13},"indices":51,"material":1,"mode":4},{"attributes":{"NORMAL":33,"POSITION":14},"indices":52,"material":1,"mode":4},{"attributes":{"NORMAL":34,"POSITION":15},"indices":53,"material":1,"mode":4},{"attributes":{"NORMAL":35,"POSITION":16},"indices":54,"material":1,"mode":4},{"attributes":{"NORMAL":36,"POSITION":17},"indices":55,"material":1,"mode":4},{"attributes":{"NORMAL":37,"POSITION":18},"indices":56,"material":1,"mode":4}]}],"nodes":[{"children":[1],"name":"Part"},{"children":[2],"name":"ビルディング"},{"children":[3,4,5],"name":"Level"},{"name":"Sketch"},{"mesh":0,"name":"Slab"},{"mesh":1,"name":"壁"}],"scene":0,"scenes":[{"nodes":[0]}]}