# Created by FreeCAD <https://www.freecad.org>
v 2600.000000 -2600.000000 -200.000000
v -2600.000000 -2600.000000 0.000000
v -2600.000000 -2600.000000 -200.000000
v 2600.000000 -2600.000000 0.000000
v 2600.000000 2600.000000 -200.000000
v 2600.000000 2600.000000 0.000000
v -2600.000000 2600.000000 -200.000000
v -2600.000000 2600.000000 0.000000
v -2550.000000 2550.000000 0.000000
v -2550.000000 -2550.000000 0.000000
v -2550.000000 -2550.000000 3000.000000
v -2550.000000 2550.000000 3000.000000
v 941.000000 -2550.000000 2100.000000
v 1841.000000 -2550.000000 2100.000000
v 2550.000000 -2550.000000 3000.000000
v 2550.000000 -2550.000000 0.000000
v 1841.000000 -2550.000000 0.000000
v 941.000000 -2550.000000 0.000000
v 2550.000000 2550.000000 0.000000
v 2550.000000 2550.000000 3000.000000
v -2450.000000 -2450.000000 0.000000
v 941.000000 -2450.000000 -0.000000
v 1841.000000 -2450.000000 -0.000000
v 2450.000000 -2450.000000 0.000000
v -2450.000000 2450.000000 0.000000
v 2450.000000 2450.000000 0.000000
v -2450.000000 -2450.000000 3000.000000
v 2450.000000 -2450.000000 3000.000000
v -2450.000000 2450.000000 3000.000000
v 2450.000000 2450.000000 3000.000000
v 1841.000000 -2450.000000 2100.000000
v 941.000000 -2450.000000 2100.000000
vn 0.000000 -1.000000 0.000000
vn -0.000000 -1.000000 -0.000000
vn 1.000000 0.000000 0.000000
vn 1.000000 0.000000 0.000000
vn 0.000000 1.000000 0.000000
vn -0.000000 1.000000 0.000000
vn -1.000000 0.000000 0.000000
vn -1.000000 0.000000 0.000000
vn 0.000000 0.000000 1.000000
vn 0.000000 0.000000 1.000000
vn 0.000000 0.000000 -1.000000
vn 0.000000 0.000000 -1.000000
vn -1.000000 0.000000 0.000000
vn -1.000000 0.000000 0.000000
vn 0.000000 -1.000000 0.000000
vn 0.000000 -1.000000 0.000000
vn 0.000000 -1.000000 0.000000
vn 0.000000 -1.000000 0.000000
vn 0.000000 -1.000000 0.000000
vn 0.000000 -1.000000 0.000000
vn 0.000000 1.000000 0.000000
vn 0.000000 1.000000 -0.000000
vn 0.000000 -0.000000 -1.000000
vn -0.000000 -0.000000 -1.000000
vn 0.000000 -0.000000 -1.000000
vn 0.000000 0.000000 -1.000000
vn -0.000000 -0.000000 -1.000000
vn 0.000000 0.000000 -1.000000
vn 0.000000 0.000000 -1.000000
vn 0.000000 0.000000 -1.000000
vn 0.000000 0.000000 -1.000000
vn 0.000000 0.000000 -1.000000
vn 0.000000 0.000000 1.000000
vn 0.000000 0.000000 1.000000
vn 0.000000 0.000000 1.000000
vn 0.000000 0.000000 1.000000
vn 0.000000 0.000000 1.000000
vn 0.000000 0.000000 1.000000
vn 0.000000 0.000000 1.000000
vn 0.000000 0.000000 1.000000
vn -1.000000 0.000000 0.000000
vn -1.000000 0.000000 0.000000
vn 0.000000 0.000000 -1.000000
vn 0.000000 0.000000 -1.000000
vn 1.000000 0.000000 0.000000
vn 1.000000 -0.000000 0.000000
vn 1.000000 0.000000 0.000000
vn 1.000000 0.000000 0.000000
vn 0.000000 1.000000 -0.000000
vn 0.000000 1.000000 0.000000
vn 0.000000 1.000000 0.000000
vn 0.000000 1.000000 -0.000000
vn 0.000000 1.000000 -0.000000
vn 0.000000 1.000000 0.000000
vn -1.000000 0.000000 0.000000
vn -1.000000 -0.000000 0.000000
vn 0.000000 -1.000000 0.000000
vn 0.000000 -1.000000 0.000000
vn 1.000000 0.000000 0.000000
vn 1.000000 -0.000000 0.000000
g Slab
f 1//1 2//1 3//1
f 4//2 2//2 1//2
f 5//3 4//3 1//3
f 6//4 4//4 5//4
f 7//5 6//5 5//5
f 8//6 6//6 7//6
f 3//7 8//7 7//7
f 2//8 8//8 3//8
f 6//9 2//9 4//9
f 6//10 8//10 2//10
f 3//11 5//11 1//11
f 7//12 5//12 3//12
g \u58c1
f 9//13 10//13 11//13
f 9//14 11//14 12//14
f 13//15 14//15 15//15
f 16//16 15//16 14//16
f 17//17 16//17 14//17
f 11//18 13//18 15//18
f 10//19 18//19 13//19
f 10//20 13//20 11//20
f 19//21 9//21 12//21
f 19//22 12//22 20//22
f 21//23 18//23 10//23
f 21//24 22//24 18//24
f 23//25 24//25 17//25
f 10//26 9//26 21//26
f 24//27 16//27 17//27
f 9//28 25//28 21//28
f 24//29 26//29 16//29
f 26//30 19//30 16//30
f 9//31 19//31 25//31
f 25//32 19//32 26//32
f 12//33 11//33 27//33
f 28//34 27//34 11//34
f 29//35 12//35 27//35
f 15//36 28//36 11//36
f 30//37 28//37 15//37
f 20//38 30//38 15//38
f 20//39 12//39 29//39
f 20//40 29//40 30//40
f 17//41 14//41 31//41
f 17//42 31//42 23//42
f 14//43 13//43 32//43
f 14//44 32//44 31//44
f 13//45 18//45 22//45
f 13//46 22//46 32//46
f 16//47 19//47 20//47
f 16//48 20//48 15//48
f 31//49 32//49 28//49
f 28//50 24//50 31//50
f 24//51 23//51 31//51
f 32//52 27//52 28//52
f 22//53 21//53 32//53
f 32//54 21//54 27//54
f 26//55 24//55 30//55
f 30//56 24//56 28//56
f 25//57 26//57 29//57
f 29//58 26//58 30//58
f 21//59 25//59 27//59
f 27//60 25//60 29//60
