{"accessors":[{"bufferView":0,"byteOffset":0,"componentType":5126,"count":4,"max":[2.6,0.0,2.6],"min":[-2.6,-0.2,2.6],"type":"VEC3"},{"bufferView":0,"byteOffset":48,"componentType":5126,"count":4,"max":[2.6,0.0,2.6],"min":[2.6,-0.2,-2.6],"type":"VEC3"},{"bufferView":0,"byteOffset":96,"componentType":5126,"count":4,"max":[2.6,0.0,-2.6],"min":[-2.6,-0.2,-2.6],"type":"VEC3"},{"bufferView":0,"byteOffset":144,"componentType":5126,"count":4,"max":[-2.6,0.0,2.6],"min":[-2.6,-0.2,-2.6],"type":"VEC3"},{"bufferView":0,"byteOffset":192,"componentType":5126,"count":4,"max":[2.6,0.0,2.6],"min":[-2.6,0.0,-2.6],"type":"VEC3"},{"bufferView":0,"byteOffset":240,"componentType":5126,"count":4,"max":[2.6,-0.2,2.6],"min":[-2.6,-0.2,-2.6],"type":"VEC3"},{"bufferView":0,"byteOffset":288,"componentType":5126,"count":4,"max":[-2.5500000000000003,3.0,2.5500000000000003],"min":[-2.5500000000000003,0.0,-2.5500000000000003],"type":"VEC3"},{"bufferView":0,"byteOffset":336,"componentType":5126,"count":4,"max":[2.5500000000000003,3.0,2.5500000000000003],"min":[-2.5500000000000003,0.0,2.5500000000000003],"type":"VEC3"},{"bufferView":0,"byteOffset":384,"componentType":5126,"count":4,"max":[2.5500000000000003,3.0,2.5500000000000003],"min":[2.5500000000000003,0.0,-2.5500000000000003],"type":"VEC3"},{"bufferView":0,"byteOffset":432,"componentType":5126,"count":4,"max":[2.5500000000000003,3.0,-2.5500000000000003],"min":[-2.5500000000000003,0.0,-2.5500000000000003],"type":"VEC3"},{"bufferView":0,"byteOffset":480,"componentType":5126,"count":4,"max":[-2.45,3.0,2.45],"min":[-2.45,0.0,-2.45],"type":"VEC3"},{"bufferView":0,"byteOffset":528,"componentType":5126,"count":4,"max":[2.45,3.0,-2.45],"min":[-2.45,0.0,-2.45],"type":"VEC3"},{"bufferView":0,"byteOffset":576,"componentType":5126,"count":4,"max":[2.45,3.0,2.45],"min":[2.45,0.0,-2.45],"type":"VEC3"},{"bufferView":0,"byteOffset":624,"componentType":5126,"count":4,"max":[2.45,3.0,2.45],"min":[-2.45,0.0,2.45],"type":"VEC3"},{"bufferView":0,"byteOffset":672,"componentType":5126,"count":8,"max":[2.5500000000000003,0.0,2.5500000000000003],"min":[-2.5500000000000003,0.0,-2.5500000000000003],"type":"VEC3"},{"bufferView":0,"byteOffset":768,"componentType":5126,"count":8,"max":[2.5500000000000003,3.0,2.5500000000000003],"min":[-2.5500000000000003,3.0,-2.5500000000000003],"type":"VEC3"},{"bufferView":1,"byteOffset":0,"componentType":5126,"count":4,"type":"VEC3"},{"bufferView":1,"byteOffset":48,"componentType":5126,"count":4,"type":"VEC3"},{"bufferView":1,"byteOffset":96,"componentType":5126,"count":4,"type":"VEC3"},{"bufferView":1,"byteOffset":144,"componentType":5126,"count":4,"type":"VEC3"},{"bufferView":1,"byteOffset":192,"componentType":5126,"count":4,"type":"VEC3"},{"bufferView":1,"byteOffset":240,"componentType":5126,"count":4,"type":"VEC3"},{"bufferView":1,"byteOffset":288,"componentType":5126,"count":4,"type":"VEC3"},{"bufferView":1,"byteOffset":336,"componentType":5126,"count":4,"type":"VEC3"},{"bufferView":1,"byteOffset":384,"componentType":5126,"count":4,"type":"VEC3"},{"bufferView":1,"byteOffset":432,"componentType":5126,"count":4,"type":"VEC3"},{"bufferView":1,"byteOffset":480,"componentType":5126,"count":4,"type":"VEC3"},{"bufferView":1,"byteOffset":528,"componentType":5126,"count":4,"type":"VEC3"},{"bufferView":1,"byteOffset":576,"componentType":5126,"count":4,"type":"VEC3"},{"bufferView":1,"byteOffset":624,"componentType":5126,"count":4,"type":"VEC3"},{"bufferView":1,"byteOffset":672,"componentType":5126,"count":8,"type":"VEC3"},{"bufferView":1,"byteOffset":768,"componentType":5126,"count":8,"type":"VEC3"},{"bufferView":2,"byteOffset":0,"componentType":5123,"count":6,"type":"SCALAR"},{"bufferView":2,"byteOffset":12,"componentType":5123,"count":6,"type":"SCALAR"},{"bufferView":2,"byteOffset":24,"componentType":5123,"count":6,"type":"SCALAR"},{"bufferView":2,"byteOffset":36,"componentType":5123,"count":6,"type":"SCALAR"},{"bufferView":2,"byteOffset":48,"componentType":5123,"count":6,"type":"SCALAR"},{"bufferView":2,"byteOffset":60,"componentType":5123,"count":6,"type":"SCALAR"},{"bufferView":2,"byteOffset":72,"componentType":5123,"count":6,"type":"SCALAR"},{"bufferView":2,"byteOffset":84,"componentType":5123,"count":6,"type":"SCALAR"},{"bufferView":2,"byteOffset":96,"componentType":5123,"count":6,"type":"SCALAR"},{"bufferView":2,"byteOffset":108,"componentType":5123,"count":6,"type":"SCALAR"},{"bufferView":2,"byteOffset":120,"componentType":5123,"count":6,"type":"SCALAR"},{"bufferView":2,"byteOffset":132,"componentType":5123,"count":6,"type":"SCALAR"},{"bufferView":2,"byteOffset":144,"componentType":5123,"count":6,"type":"SCALAR"},{"bufferView":2,"byteOffset":156,"componentType":5123,"count":6,"type":"SCALAR"},{"bufferView":2,"byteOffset":168,"componentType":5123,"count":24,"type":"SCALAR"},{"bufferView":2,"byteOffset":216,"componentType":5123,"count":24,"type":"SCALAR"}],"asset":{"generator":"Open CASCADE Technology 7.8 [dev.opencascade.org]","version":"2.0"},"bufferViews":[{"buffer":0,"byteLength":864,"byteOffset":0,"byteStride":12,"target":34962},{"buffer":0,"byteLength":864,"byteOffset":864,"byteStride":12,"target":34962},{"buffer":0,"byteLength":264,"byteOffset":1728,"target":34963}],"buffers":[{"byteLength":1992,"uri":"room3.bin"}],"materials":[{"name":"mat_0","pbrMetallicRoughness":{"baseColorFactor":[0.3049873411655426,0.39675524830818176,0.49102088809013367,1.0]},"doubleSided":true},{"name":"mat_1","pbrMetallicRoughness":{"baseColorFactor":[0.672443151473999,0.672443151473999,0.672443151473999,1.0]},"doubleSided":true}],"meshes":[{"name":"Slab001","primitives":[{"attributes":{"NORMAL":16,"POSITION":0},"indices":32,"material":0,"mode":4},{"attributes":{"NORMAL":17,"POSITION":1},"indices":33,"material":0,"mode":4},{"attributes":{"NORMAL":18,"POSITION":2},"indices":34,"material":0,"mode":4},{"attributes":{"NORMAL":19,"POSITION":3},"indices":35,"material":0,"mode":4},{"attributes":{"NORMAL":20,"POSITION":4},"indices":36,"material":0,"mode":4},{"attributes":{"NORMAL":21,"POSITION":5},"indices":37,"material":0,"mode":4}]},{"name":"壁002","primitives":[{"attributes":{"NORMAL":22,"POSITION":6},"indices":38,"material":1,"mode":4},{"attributes":{"NORMAL":23,"POSITION":7},"indices":39,"material":1,"mode":4},{"attributes":{"NORMAL":24,"POSITION":8},"indices":40,"material":1,"mode":4},{"attributes":{"NORMAL":25,"POSITION":9},"indices":41,"material":1,"mode":4},{"attributes":{"NORMAL":26,"POSITION":10},"indices":42,"material":1,"mode":4},{"attributes":{"NORMAL":27,"POSITION":11},"indices":43,"material":1,"mode":4},{"attributes":{"NORMAL":28,"POSITION":12},"indices":44,"material":1,"mode":4},{"attributes":{"NORMAL":29,"POSITION":13},"indices":45,"material":1,"mode":4},{"attributes":{"NORMAL":30,"POSITION":14},"indices":46,"material":1,"mode":4},{"attributes":{"NORMAL":31,"POSITION":15},"indices":47,"material":1,"mode":4}]}],"nodes":[{"children":[1,2],"name":"Part"},{"name":"壁001"},{"children":[3],"name":"ビルディング001"},{"children":[4,5,6],"name":"Level001"},{"name":"Sketch005"},{"mesh":0,"name":"Slab001"},{"mesh":1,"name":"壁002"}],"scene":0,"scenes":[{"nodes":[0]}]}