{"accessors":[{"bufferView":0,"byteOffset":0,"componentType":5126,"count":4,"max":[-2.5500000000000003,3.0,2.5500000000000003],"min":[-2.5500000000000003,0.0,-2.5500000000000003],"type":"VEC3"},{"bufferView":0,"byteOffset":48,"componentType":5126,"count":8,"max":[2.5500000000000003,3.0,2.5500000000000003],"min":[-2.5500000000000003,0.0,2.5500000000000003],"type":"VEC3"},{"bufferView":0,"byteOffset":144,"componentType":5126,"count":4,"max":[2.5500000000000003,3.0,-2.5500000000000003],"min":[-2.5500000000000003,0.0,-2.5500000000000003],"type":"VEC3"},{"bufferView":0,"byteOffset":192,"componentType":5126,"count":12,"max":[2.5500000000000003,1.0769163338864019e-17,2.5500000000000003],"min":[-2.5500000000000003,-3.3306690738754697e-19,-2.5500000000000003],"type":"VEC3"},{"bufferView":0,"byteOffset":336,"componentType":5126,"count":8,"max":[2.5500000000000003,3.0,2.5500000000000003],"min":[-2.5500000000000003,3.0,-2.5500000000000003],"type":"VEC3"},{"bufferView":0,"byteOffset":432,"componentType":5126,"count":4,"max":[1.841,2.1,2.5500000000000003],"min":[1.841,-3.3306690738754697e-19,2.45],"type":"VEC3"},{"bufferView":0,"byteOffset":480,"componentType":5126,"count":4,"max":[1.841,2.1,2.5500000000000003],"min":[0.9410000000000001,2.1,2.45],"type":"VEC3"},{"bufferView":0,"byteOffset":528,"componentType":5126,"count":4,"max":[0.9410000000000001,2.1,2.5500000000000003],"min":[0.9410000000000001,-3.3306690738754697e-19,2.45],"type":"VEC3"},{"bufferView":0,"byteOffset":576,"componentType":5126,"count":4,"max":[2.5500000000000003,3.0,2.5500000000000003],"min":[2.5500000000000003,0.0,-2.5500000000000003],"type":"VEC3"},{"bufferView":0,"byteOffset":624,"componentType":5126,"count":8,"max":[2.45,3.0,2.45],"min":[-2.45,-3.3306690738754697e-19,2.45],"type":"VEC3"},{"bufferView":0,"byteOffset":720,"componentType":5126,"count":4,"max":[2.45,3.0,2.45],"min":[2.45,0.0,-2.45],"type":"VEC3"},{"bufferView":0,"byteOffset":768,"componentType":5126,"count":4,"max":[2.45,3.0,-2.45],"min":[-2.45,0.0,-2.45],"type":"VEC3"},{"bufferView":0,"byteOffset":816,"componentType":5126,"count":4,"max":[-2.45,3.0,2.45],"min":[-2.45,0.0,-2.45],"type":"VEC3"},{"bufferView":1,"byteOffset":0,"componentType":5126,"count":4,"type":"VEC3"},{"bufferView":1,"byteOffset":48,"componentType":5126,"count":8,"type":"VEC3"},{"bufferView":1,"byteOffset":144,"componentType":5126,"count":4,"type":"VEC3"},{"bufferView":1,"byteOffset":192,"componentType":5126,"count":12,"type":"VEC3"},{"bufferView":1,"byteOffset":336,"componentType":5126,"count":8,"type":"VEC3"},{"bufferView":1,"byteOffset":432,"componentType":5126,"count":4,"type":"VEC3"},{"bufferView":1,"byteOffset":480,"componentType":5126,"count":4,"type":"VEC3"},{"bufferView":1,"byteOffset":528,"componentType":5126,"count":4,"type":"VEC3"},{"bufferView":1,"byteOffset":576,"componentType":5126,"count":4,"type":"VEC3"},{"bufferView":1,"byteOffset":624,"componentType":5126,"count":8,"type":"VEC3"},{"bufferView":1,"byteOffset":720,"componentType":5126,"count":4,"type":"VEC3"},{"bufferView":1,"byteOffset":768,"componentType":5126,"count":4,"type":"VEC3"},{"bufferView":1,"byteOffset":816,"componentType":5126,"count":4,"type":"VEC3"},{"bufferView":2,"byteOffset":0,"componentType":5123,"count":6,"type":"SCALAR"},{"bufferView":2,"byteOffset":12,"componentType":5123,"count":18,"type":"SCALAR"},{"bufferView":2,"byteOffset":48,"componentType":5123,"count":6,"type":"SCALAR"},{"bufferView":2,"byteOffset":60,"componentType":5123,"count":30,"type":"SCALAR"},{"bufferView":2,"byteOffset":120,"componentType":5123,"count":24,"type":"SCALAR"},{"bufferView":2,"byteOffset":168,"componentType":5123,"count":6,"type":"SCALAR"},{"bufferView":2,"byteOffset":180,"componentType":5123,"count":6,"type":"SCALAR"},{"bufferView":2,"byteOffset":192,"componentType":5123,"count":6,"type":"SCALAR"},{"bufferView":2,"byteOffset":204,"componentType":5123,"count":6,"type":"SCALAR"},{"bufferView":2,"byteOffset":216,"componentType":5123,"count":18,"type":"SCALAR"},{"bufferView":2,"byteOffset":252,"componentType":5123,"count":6,"type":"SCALAR"},{"bufferView":2,"byteOffset":264,"componentType":5123,"count":6,"type":"SCALAR"},{"bufferView":2,"byteOffset":276,"componentType":5123,"count":6,"type":"SCALAR"}],"asset":{"generator":"Open CASCADE Technology 7.8 [dev.opencascade.org]","version":"2.0"},"bufferViews":[{"buffer":0,"byteLength":864,"byteOffset":0,"byteStride":12,"target":34962},{"buffer":0,"byteLength":864,"byteOffset":864,"byteStride":12,"target":34962},{"buffer":0,"byteLength":288,"byteOffset":1728,"target":34963}],"buffers":[{"byteLength":2016,"uri":"wall.bin"}],"materials":[{"name":"mat_0","pbrMetallicRoughness":{"baseColorFactor":[0.672443151473999,0.672443151473999,0.672443151473999,1.0]},"doubleSided":true}],"meshes":[{"name":"壁","primitives":[{"attributes":{"NORMAL":13,"POSITION":0},"indices":26,"material":0,"mode":4},{"attributes":{"NORMAL":14,"POSITION":1},"indices":27,"material":0,"mode":4},{"attributes":{"NORMAL":15,"POSITION":2},"indices":28,"material":0,"mode":4},{"attributes":{"NORMAL":16,"POSITION":3},"indices":29,"material":0,"mode":4},{"attributes":{"NORMAL":17,"POSITION":4},"indices":30,"material":0,"mode":4},{"attributes":{"NORMAL":18,"POSITION":5},"indices":31,"material":0,"mode":4},{"attributes":{"NORMAL":19,"POSITION":6},"indices":32,"material":0,"mode":4},{"attributes":{"NORMAL":20,"POSITION":7},"indices":33,"material":0,"mode":4},{"attributes":{"NORMAL":21,"POSITION":8},"indices":34,"material":0,"mode":4},{"attributes":{"NORMAL":22,"POSITION":9},"indices":35,"material":0,"mode":4},{"attributes":{"NORMAL":23,"POSITION":10},"indices":36,"material":0,"mode":4},{"attributes":{"NORMAL":24,"POSITION":11},"indices":37,"material":0,"mode":4},{"attributes":{"NORMAL":25,"POSITION":12},"indices":38,"material":0,"mode":4}]}],"nodes":[{"mesh":0,"name":"壁"}],"scene":0,"scenes":[{"nodes":[0]}]}