{"accessors":[{"bufferView":0,"byteOffset":0,"componentType":5126,"count":8,"max":[0.37,1.818,0.3645],"min":[-0.37,0.0,0.3644999999999996],"type":"VEC3"},{"bufferView":0,"byteOffset":96,"componentType":5126,"count":4,"max":[-0.37,1.818,0.3645],"min":[-0.37,0.0,-0.3645],"type":"VEC3"},{"bufferView":0,"byteOffset":144,"componentType":5126,"count":4,"max":[0.37,0.0,0.3645],"min":[-0.37,0.0,-0.3645],"type":"VEC3"},{"bufferView":0,"byteOffset":192,"componentType":5126,"count":4,"max":[0.37,1.818,0.3645],"min":[-0.37,1.818,-0.3645],"type":"VEC3"},{"bufferView":0,"byteOffset":240,"componentType":5126,"count":4,"max":[0.37,1.818,0.3645],"min":[0.37,0.0,-0.3645],"type":"VEC3"},{"bufferView":0,"byteOffset":288,"componentType":5126,"count":10,"max":[0.365,1.813,0.3655],"min":[0.365,0.005,0.3644999999999996],"type":"VEC3"},{"bufferView":0,"byteOffset":408,"componentType":5126,"count":4,"max":[0.365,0.005,0.3655],"min":[-0.365,0.005,0.3645],"type":"VEC3"},{"bufferView":0,"byteOffset":456,"componentType":5126,"count":10,"max":[-0.365,1.813,0.3655],"min":[-0.365,0.005,0.3644999999999996],"type":"VEC3"},{"bufferView":0,"byteOffset":576,"componentType":5126,"count":6,"max":[0.365,1.813,0.3654999999999996],"min":[-0.365,1.813,0.3644999999999996],"type":"VEC3"},{"bufferView":0,"byteOffset":648,"componentType":5126,"count":4,"max":[0.37,1.818,-0.3645],"min":[-0.37,0.0,-0.3645],"type":"VEC3"},{"bufferView":0,"byteOffset":696,"componentType":5126,"count":8,"max":[0.37,0.37400236200000003,0.3655],"min":[-0.37,-4e-18,0.36549999999999944],"type":"VEC3"},{"bufferView":0,"byteOffset":792,"componentType":5126,"count":4,"max":[0.365,0.37900236200000004,0.36549999999999966],"min":[-0.365,0.374002362,0.36549999999999966],"type":"VEC3"},{"bufferView":0,"byteOffset":840,"componentType":5126,"count":4,"max":[0.37,0.7540023619999999,0.36549999999999966],"min":[0.365,0.37900236200000004,0.3654999999999993],"type":"VEC3"},{"bufferView":0,"byteOffset":888,"componentType":5126,"count":16,"max":[0.365,1.813,0.3654999999999997],"min":[-0.365,0.7540023619999999,0.36549999999999927],"type":"VEC3"},{"bufferView":0,"byteOffset":1080,"componentType":5126,"count":4,"max":[0.37,0.904002362,0.36549999999999955],"min":[0.365,0.7590023619999999,0.36549999999999927],"type":"VEC3"},{"bufferView":0,"byteOffset":1128,"componentType":5126,"count":6,"max":[0.37,1.818,0.36549999999999966],"min":[-0.06501293800000002,0.909,0.36549999999999944],"type":"VEC3"},{"bufferView":0,"byteOffset":1200,"componentType":5126,"count":6,"max":[-0.07001293800000002,1.818,0.3654999999999997],"min":[-0.37,0.909,0.36549999999999944],"type":"VEC3"},{"bufferView":0,"byteOffset":1272,"componentType":5126,"count":4,"max":[-0.365,0.904002362,0.36549999999999955],"min":[-0.37,0.7590023619999999,0.36549999999999927],"type":"VEC3"},{"bufferView":0,"byteOffset":1320,"componentType":5126,"count":4,"max":[-0.365,0.7540023619999999,0.36549999999999966],"min":[-0.37,0.379002362,0.3654999999999993],"type":"VEC3"},{"bufferView":0,"byteOffset":1368,"componentType":5126,"count":4,"max":[-0.37,0.37400236200000003,0.3854999999999995],"min":[-0.37,-4e-18,0.36549999999999944],"type":"VEC3"},{"bufferView":0,"byteOffset":1416,"componentType":5126,"count":4,"max":[0.37,0.0,0.3854999999999995],"min":[-0.37,-4e-18,0.3654999999999995],"type":"VEC3"},{"bufferView":0,"byteOffset":1464,"componentType":5126,"count":4,"max":[0.37,0.37400236200000003,0.3854999999999995],"min":[0.37,-4e-18,0.36549999999999944],"type":"VEC3"},{"bufferView":0,"byteOffset":1512,"componentType":5126,"count":6,"max":[0.37,0.37400236200000003,0.38549999999999945],"min":[-0.37,0.374002362,0.36549999999999944],"type":"VEC3"},{"bufferView":0,"byteOffset":1584,"componentType":5126,"count":6,"max":[0.37,0.37900236200000004,0.38549999999999945],"min":[-0.37,0.379002362,0.36549999999999944],"type":"VEC3"},{"bufferView":0,"byteOffset":1656,"componentType":5126,"count":4,"max":[0.37,0.7540023619999999,0.38549999999999945],"min":[0.37,0.37900236200000004,0.3654999999999993],"type":"VEC3"},{"bufferView":0,"byteOffset":1704,"componentType":5126,"count":6,"max":[0.37,0.7540023619999999,0.38549999999999934],"min":[-0.37,0.7540023619999999,0.3654999999999993],"type":"VEC3"},{"bufferView":0,"byteOffset":1776,"componentType":5126,"count":5,"max":[-0.07001293800000001,1.818,0.3854999999999996],"min":[-0.07001293800000002,0.909,0.36549999999999944],"type":"VEC3"},{"bufferView":0,"byteOffset":1836,"componentType":5126,"count":5,"max":[-0.07001293800000001,0.909,0.3854999999999996],"min":[-0.37,0.909,0.3654999999999996],"type":"VEC3"},{"bufferView":0,"byteOffset":1896,"componentType":5126,"count":5,"max":[-0.07,0.904002362,0.3854999999999993],"min":[-0.37,0.904002362,0.36549999999999927],"type":"VEC3"},{"bufferView":0,"byteOffset":1956,"componentType":5126,"count":4,"max":[-0.06999999999999999,0.904002362,0.38549999999999934],"min":[-0.07,0.7590023619999999,0.36549999999999927],"type":"VEC3"},{"bufferView":0,"byteOffset":2004,"componentType":5126,"count":5,"max":[-0.06999999999999999,0.7590023619999999,0.38549999999999934],"min":[-0.37,0.7590023619999999,0.3654999999999993],"type":"VEC3"},{"bufferView":0,"byteOffset":2064,"componentType":5126,"count":5,"max":[0.37,0.7590023619999999,0.38549999999999934],"min":[-0.065,0.7590023619999999,0.3654999999999993],"type":"VEC3"},{"bufferView":0,"byteOffset":2124,"componentType":5126,"count":4,"max":[-0.06499999999999999,0.904002362,0.38549999999999934],"min":[-0.065,0.7590023619999999,0.36549999999999927],"type":"VEC3"},{"bufferView":0,"byteOffset":2172,"componentType":5126,"count":5,"max":[0.37,0.904002362,0.3854999999999993],"min":[-0.06499999999999999,0.904002362,0.36549999999999927],"type":"VEC3"},{"bufferView":0,"byteOffset":2232,"componentType":5126,"count":5,"max":[0.37,0.909,0.3854999999999996],"min":[-0.065012938,0.909,0.3654999999999996],"type":"VEC3"},{"bufferView":0,"byteOffset":2292,"componentType":5126,"count":5,"max":[-0.065012938,1.818,0.3854999999999996],"min":[-0.06501293800000002,0.909,0.36549999999999944],"type":"VEC3"},{"bufferView":0,"byteOffset":2352,"componentType":5126,"count":4,"max":[0.37,0.904002362,0.38549999999999934],"min":[0.37,0.7590023619999999,0.36549999999999927],"type":"VEC3"},{"bufferView":0,"byteOffset":2400,"componentType":5126,"count":4,"max":[0.37,1.818,0.3854999999999996],"min":[0.37,0.909,0.36549999999999944],"type":"VEC3"},{"bufferView":0,"byteOffset":2448,"componentType":5126,"count":4,"max":[0.37,1.818,0.38549999999999945],"min":[-0.06501293800000002,1.818,0.36549999999999944],"type":"VEC3"},{"bufferView":0,"byteOffset":2496,"componentType":5126,"count":4,"max":[-0.07001293800000002,1.818,0.38549999999999945],"min":[-0.37,1.818,0.36549999999999944],"type":"VEC3"},{"bufferView":0,"byteOffset":2544,"componentType":5126,"count":4,"max":[-0.37,1.818,0.3854999999999996],"min":[-0.37,0.909,0.36549999999999944],"type":"VEC3"},{"bufferView":0,"byteOffset":2592,"componentType":5126,"count":4,"max":[-0.37,0.904002362,0.38549999999999934],"min":[-0.37,0.7590023619999999,0.36549999999999927],"type":"VEC3"},{"bufferView":0,"byteOffset":2640,"componentType":5126,"count":4,"max":[-0.37,0.7540023619999999,0.38549999999999945],"min":[-0.37,0.37900236200000004,0.3654999999999993],"type":"VEC3"},{"bufferView":0,"byteOffset":2688,"componentType":5126,"count":4,"max":[0.37,0.37400236200000003,0.3854999999999995],"min":[-0.37,0.0,0.38549999999999945],"type":"VEC3"},{"bufferView":0,"byteOffset":2736,"componentType":5126,"count":4,"max":[0.37,0.7540023619999999,0.38549999999999945],"min":[-0.37,0.37900236200000004,0.38549999999999934],"type":"VEC3"},{"bufferView":0,"byteOffset":2784,"componentType":5126,"count":4,"max":[-0.07001293800000001,1.818,0.3854999999999996],"min":[-0.37,0.909,0.38549999999999945],"type":"VEC3"},{"bufferView":0,"byteOffset":2832,"componentType":5126,"count":4,"max":[-0.06999999999999999,0.904002362,0.38549999999999934],"min":[-0.37,0.7590023619999999,0.3854999999999993],"type":"VEC3"},{"bufferView":0,"byteOffset":2880,"componentType":5126,"count":4,"max":[0.37,0.904002362,0.38549999999999934],"min":[-0.065,0.7590023619999999,0.3854999999999993],"type":"VEC3"},{"bufferView":0,"byteOffset":2928,"componentType":5126,"count":4,"max":[0.37,1.818,0.3854999999999996],"min":[-0.06501293800000002,0.909,0.38549999999999945],"type":"VEC3"},{"bufferView":1,"byteOffset":0,"componentType":5126,"count":8,"type":"VEC3"},{"bufferView":1,"byteOffset":96,"componentType":5126,"count":4,"type":"VEC3"},{"bufferView":1,"byteOffset":144,"componentType":5126,"count":4,"type":"VEC3"},{"bufferView":1,"byteOffset":192,"componentType":5126,"count":4,"type":"VEC3"},{"bufferView":1,"byteOffset":240,"componentType":5126,"count":4,"type":"VEC3"},{"bufferView":1,"byteOffset":288,"componentType":5126,"count":10,"type":"VEC3"},{"bufferView":1,"byteOffset":408,"componentType":5126,"count":4,"type":"VEC3"},{"bufferView":1,"byteOffset":456,"componentType":5126,"count":10,"type":"VEC3"},{"bufferView":1,"byteOffset":576,"componentType":5126,"count":6,"type":"VEC3"},{"bufferView":1,"byteOffset":648,"componentType":5126,"count":4,"type":"VEC3"},{"bufferView":1,"byteOffset":696,"componentType":5126,"count":8,"type":"VEC3"},{"bufferView":1,"byteOffset":792,"componentType":5126,"count":4,"type":"VEC3"},{"bufferView":1,"byteOffset":840,"componentType":5126,"count":4,"type":"VEC3"},{"bufferView":1,"byteOffset":888,"componentType":5126,"count":16,"type":"VEC3"},{"bufferView":1,"byteOffset":1080,"componentType":5126,"count":4,"type":"VEC3"},{"bufferView":1,"byteOffset":1128,"componentType":5126,"count":6,"type":"VEC3"},{"bufferView":1,"byteOffset":1200,"componentType":5126,"count":6,"type":"VEC3"},{"bufferView":1,"byteOffset":1272,"componentType":5126,"count":4,"type":"VEC3"},{"bufferView":1,"byteOffset":1320,"componentType":5126,"count":4,"type":"VEC3"},{"bufferView":1,"byteOffset":1368,"componentType":5126,"count":4,"type":"VEC3"},{"bufferView":1,"byteOffset":1416,"componentType":5126,"count":4,"type":"VEC3"},{"bufferView":1,"byteOffset":1464,"componentType":5126,"count":4,"type":"VEC3"},{"bufferView":1,"byteOffset":1512,"componentType":5126,"count":6,"type":"VEC3"},{"bufferView":1,"byteOffset":1584,"componentType":5126,"count":6,"type":"VEC3"},{"bufferView":1,"byteOffset":1656,"componentType":5126,"count":4,"type":"VEC3"},{"bufferView":1,"byteOffset":1704,"componentType":5126,"count":6,"type":"VEC3"},{"bufferView":1,"byteOffset":1776,"componentType":5126,"count":5,"type":"VEC3"},{"bufferView":1,"byteOffset":1836,"componentType":5126,"count":5,"type":"VEC3"},{"bufferView":1,"byteOffset":1896,"componentType":5126,"count":5,"type":"VEC3"},{"bufferView":1,"byteOffset":1956,"componentType":5126,"count":4,"type":"VEC3"},{"bufferView":1,"byteOffset":2004,"componentType":5126,"count":5,"type":"VEC3"},{"bufferView":1,"byteOffset":2064,"componentType":5126,"count":5,"type":"VEC3"},{"bufferView":1,"byteOffset":2124,"componentType":5126,"count":4,"type":"VEC3"},{"bufferView":1,"byteOffset":2172,"componentType":5126,"count":5,"type":"VEC3"},{"bufferView":1,"byteOffset":2232,"componentType":5126,"count":5,"type":"VEC3"},{"bufferView":1,"byteOffset":2292,"componentType":5126,"count":5,"type":"VEC3"},{"bufferView":1,"byteOffset":2352,"componentType":5126,"count":4,"type":"VEC3"},{"bufferView":1,"byteOffset":2400,"componentType":5126,"count":4,"type":"VEC3"},{"bufferView":1,"byteOffset":2448,"componentType":5126,"count":4,"type":"VEC3"},{"bufferView":1,"byteOffset":2496,"componentType":5126,"count":4,"type":"VEC3"},{"bufferView":1,"byteOffset":2544,"componentType":5126,"count":4,"type":"VEC3"},{"bufferView":1,"byteOffset":2592,"componentType":5126,"count":4,"type":"VEC3"},{"bufferView":1,"byteOffset":2640,"componentType":5126,"count":4,"type":"VEC3"},{"bufferView":1,"byteOffset":2688,"componentType":5126,"count":4,"type":"VEC3"},{"bufferView":1,"byteOffset":2736,"componentType":5126,"count":4,"type":"VEC3"},{"bufferView":1,"byteOffset":2784,"componentType":5126,"count":4,"type":"VEC3"},{"bufferView":1,"byteOffset":2832,"componentType":5126,"count":4,"type":"VEC3"},{"bufferView":1,"byteOffset":2880,"componentType":5126,"count":4,"type":"VEC3"},{"bufferView":1,"byteOffset":2928,"componentType":5126,"count":4,"type":"VEC3"},{"bufferView":2,"byteOffset":0,"componentType":5123,"count":24,"type":"SCALAR"},{"bufferView":2,"byteOffset":48,"componentType":5123,"count":6,"type":"SCALAR"},{"bufferView":2,"byteOffset":60,"componentType":5123,"count":6,"type":"SCALAR"},{"bufferView":2,"byteOffset":72,"componentType":5123,"count":6,"type":"SCALAR"},{"bufferView":2,"byteOffset":84,"componentType":5123,"count":6,"type":"SCALAR"},{"bufferView":2,"byteOffset":96,"componentType":5123,"count":24,"type":"SCALAR"},{"bufferView":2,"byteOffset":144,"componentType":5123,"count":6,"type":"SCALAR"},{"bufferView":2,"byteOffset":156,"componentType":5123,"count":24,"type":"SCALAR"},{"bufferView":2,"byteOffset":204,"componentType":5123,"count":12,"type":"SCALAR"},{"bufferView":2,"byteOffset":228,"componentType":5123,"count":6,"type":"SCALAR"},{"bufferView":2,"byteOffset":240,"componentType":5123,"count":18,"type":"SCALAR"},{"bufferView":2,"byteOffset":276,"componentType":5123,"count":6,"type":"SCALAR"},{"bufferView":2,"byteOffset":288,"componentType":5123,"count":6,"type":"SCALAR"},{"bufferView":2,"byteOffset":300,"componentType":5123,"count":42,"type":"SCALAR"},{"bufferView":2,"byteOffset":384,"componentType":5123,"count":6,"type":"SCALAR"},{"bufferView":2,"byteOffset":396,"componentType":5123,"count":12,"type":"SCALAR"},{"bufferView":2,"byteOffset":420,"componentType":5123,"count":12,"type":"SCALAR"},{"bufferView":2,"byteOffset":444,"componentType":5123,"count":6,"type":"SCALAR"},{"bufferView":2,"byteOffset":456,"componentType":5123,"count":6,"type":"SCALAR"},{"bufferView":2,"byteOffset":468,"componentType":5123,"count":6,"type":"SCALAR"},{"bufferView":2,"byteOffset":480,"componentType":5123,"count":6,"type":"SCALAR"},{"bufferView":2,"byteOffset":492,"componentType":5123,"count":6,"type":"SCALAR"},{"bufferView":2,"byteOffset":504,"componentType":5123,"count":12,"type":"SCALAR"},{"bufferView":2,"byteOffset":528,"componentType":5123,"count":12,"type":"SCALAR"},{"bufferView":2,"byteOffset":552,"componentType":5123,"count":6,"type":"SCALAR"},{"bufferView":2,"byteOffset":564,"componentType":5123,"count":12,"type":"SCALAR"},{"bufferView":2,"byteOffset":588,"componentType":5123,"count":9,"type":"SCALAR"},{"bufferView":2,"byteOffset":608,"componentType":5123,"count":9,"type":"SCALAR"},{"bufferView":2,"byteOffset":628,"componentType":5123,"count":9,"type":"SCALAR"},{"bufferView":2,"byteOffset":648,"componentType":5123,"count":6,"type":"SCALAR"},{"bufferView":2,"byteOffset":660,"componentType":5123,"count":9,"type":"SCALAR"},{"bufferView":2,"byteOffset":680,"componentType":5123,"count":9,"type":"SCALAR"},{"bufferView":2,"byteOffset":700,"componentType":5123,"count":6,"type":"SCALAR"},{"bufferView":2,"byteOffset":712,"componentType":5123,"count":9,"type":"SCALAR"},{"bufferView":2,"byteOffset":732,"componentType":5123,"count":9,"type":"SCALAR"},{"bufferView":2,"byteOffset":752,"componentType":5123,"count":9,"type":"SCALAR"},{"bufferView":2,"byteOffset":772,"componentType":5123,"count":6,"type":"SCALAR"},{"bufferView":2,"byteOffset":784,"componentType":5123,"count":6,"type":"SCALAR"},{"bufferView":2,"byteOffset":796,"componentType":5123,"count":6,"type":"SCALAR"},{"bufferView":2,"byteOffset":808,"componentType":5123,"count":6,"type":"SCALAR"},{"bufferView":2,"byteOffset":820,"componentType":5123,"count":6,"type":"SCALAR"},{"bufferView":2,"byteOffset":832,"componentType":5123,"count":6,"type":"SCALAR"},{"bufferView":2,"byteOffset":844,"componentType":5123,"count":6,"type":"SCALAR"},{"bufferView":2,"byteOffset":856,"componentType":5123,"count":6,"type":"SCALAR"},{"bufferView":2,"byteOffset":868,"componentType":5123,"count":6,"type":"SCALAR"},{"bufferView":2,"byteOffset":880,"componentType":5123,"count":6,"type":"SCALAR"},{"bufferView":2,"byteOffset":892,"componentType":5123,"count":6,"type":"SCALAR"},{"bufferView":2,"byteOffset":904,"componentType":5123,"count":6,"type":"SCALAR"},{"bufferView":2,"byteOffset":916,"componentType":5123,"count":6,"type":"SCALAR"}],"asset":{"generator":"Open CASCADE Technology 7.8 [dev.opencascade.org]","version":"2.0"},"bufferViews":[{"buffer":0,"byteLength":2976,"byteOffset":0,"byteStride":12,"target":34962},{"buffer":0,"byteLength":2976,"byteOffset":2976,"byteStride":12,"target":34962},{"buffer":0,"byteLength":928,"byteOffset":5952,"target":34963}],"buffers":[{"byteLength":6880,"uri":"refrigerator.bin"}],"materials":[{"name":"mat_0","pbrMetallicRoughness":{"baseColorFactor":[0.0,0.0,0.0,1.0]},"doubleSided":true}],"meshes":[{"name":"refrigerator_clone","primitives":[{"attributes":{"NORMAL":49,"POSITION":0},"indices":98,"material":0,"mode":4},{"attributes":{"NORMAL":50,"POSITION":1},"indices":99,"material":0,"mode":4},{"attributes":{"NORMAL":51,"POSITION":2},"indices":100,"material":0,"mode":4},{"attributes":{"NORMAL":52,"POSITION":3},"indices":101,"material":0,"mode":4},{"attributes":{"NORMAL":53,"POSITION":4},"indices":102,"material":0,"mode":4},{"attributes":{"NORMAL":54,"POSITION":5},"indices":103,"material":0,"mode":4},{"attributes":{"NORMAL":55,"POSITION":6},"indices":104,"material":0,"mode":4},{"attributes":{"NORMAL":56,"POSITION":7},"indices":105,"material":0,"mode":4},{"attributes":{"NORMAL":57,"POSITION":8},"indices":106,"material":0,"mode":4},{"attributes":{"NORMAL":58,"POSITION":9},"indices":107,"material":0,"mode":4},{"attributes":{"NORMAL":59,"POSITION":10},"indices":108,"material":0,"mode":4},{"attributes":{"NORMAL":60,"POSITION":11},"indices":109,"material":0,"mode":4},{"attributes":{"NORMAL":61,"POSITION":12},"indices":110,"material":0,"mode":4},{"attributes":{"NORMAL":62,"POSITION":13},"indices":111,"material":0,"mode":4},{"attributes":{"NORMAL":63,"POSITION":14},"indices":112,"material":0,"mode":4},{"attributes":{"NORMAL":64,"POSITION":15},"indices":113,"material":0,"mode":4},{"attributes":{"NORMAL":65,"POSITION":16},"indices":114,"material":0,"mode":4},{"attributes":{"NORMAL":66,"POSITION":17},"indices":115,"material":0,"mode":4},{"attributes":{"NORMAL":67,"POSITION":18},"indices":116,"material":0,"mode":4},{"attributes":{"NORMAL":68,"POSITION":19},"indices":117,"material":0,"mode":4},{"attributes":{"NORMAL":69,"POSITION":20},"indices":118,"material":0,"mode":4},{"attributes":{"NORMAL":70,"POSITION":21},"indices":119,"material":0,"mode":4},{"attributes":{"NORMAL":71,"POSITION":22},"indices":120,"material":0,"mode":4},{"attributes":{"NORMAL":72,"POSITION":23},"indices":121,"material":0,"mode":4},{"attributes":{"NORMAL":73,"POSITION":24},"indices":122,"material":0,"mode":4},{"attributes":{"NORMAL":74,"POSITION":25},"indices":123,"material":0,"mode":4},{"attributes":{"NORMAL":75,"POSITION":26},"indices":124,"material":0,"mode":4},{"attributes":{"NORMAL":76,"POSITION":27},"indices":125,"material":0,"mode":4},{"attributes":{"NORMAL":77,"POSITION":28},"indices":126,"material":0,"mode":4},{"attributes":{"NORMAL":78,"POSITION":29},"indices":127,"material":0,"mode":4},{"attributes":{"NORMAL":79,"POSITION":30},"indices":128,"material":0,"mode":4},{"attributes":{"NORMAL":80,"POSITION":31},"indices":129,"material":0,"mode":4},{"attributes":{"NORMAL":81,"POSITION":32},"indices":130,"material":0,"mode":4},{"attributes":{"NORMAL":82,"POSITION":33},"indices":131,"material":0,"mode":4},{"attributes":{"NORMAL":83,"POSITION":34},"indices":132,"material":0,"mode":4},{"attributes":{"NORMAL":84,"POSITION":35},"indices":133,"material":0,"mode":4},{"attributes":{"NORMAL":85,"POSITION":36},"indices":134,"material":0,"mode":4},{"attributes":{"NORMAL":86,"POSITION":37},"indices":135,"material":0,"mode":4},{"attributes":{"NORMAL":87,"POSITION":38},"indices":136,"material":0,"mode":4},{"attributes":{"NORMAL":88,"POSITION":39},"indices":137,"material":0,"mode":4},{"attributes":{"NORMAL":89,"POSITION":40},"indices":138,"material":0,"mode":4},{"attributes":{"NORMAL":90,"POSITION":41},"indices":139,"material":0,"mode":4},{"attributes":{"NORMAL":91,"POSITION":42},"indices":140,"material":0,"mode":4},{"attributes":{"NORMAL":92,"POSITION":43},"indices":141,"material":0,"mode":4},{"attributes":{"NORMAL":93,"POSITION":44},"indices":142,"material":0,"mode":4},{"attributes":{"NORMAL":94,"POSITION":45},"indices":143,"material":0,"mode":4},{"attributes":{"NORMAL":95,"POSITION":46},"indices":144,"material":0,"mode":4},{"attributes":{"NORMAL":96,"POSITION":47},"indices":145,"material":0,"mode":4},{"attributes":{"NORMAL":97,"POSITION":48},"indices":146,"material":0,"mode":4}]}],"nodes":[{"children":[1],"name":"refrigerator"},{"mesh":0,"name":"refrigerator_clone"}],"scene":0,"scenes":[{"nodes":[0]}]}