{"accessors":[{"bufferView":0,"byteOffset":0,"componentType":5126,"count":4,"max":[0.55,0.63,0.35000000000000003],"min":[-0.55,0.6,0.35000000000000003],"type":"VEC3"},{"bufferView":0,"byteOffset":48,"componentType":5126,"count":4,"max":[-0.55,0.63,0.35000000000000003],"min":[-0.55,0.6,-0.35000000000000003],"type":"VEC3"},{"bufferView":0,"byteOffset":96,"componentType":5126,"count":4,"max":[0.55,0.63,0.35000000000000003],"min":[0.55,0.6,-0.35000000000000003],"type":"VEC3"},{"bufferView":0,"byteOffset":144,"componentType":5126,"count":8,"max":[0.55,0.6,0.35000000000000003],"min":[-0.55,0.6,-0.35000000000000003],"type":"VEC3"},{"bufferView":0,"byteOffset":240,"componentType":5126,"count":4,"max":[0.55,0.63,0.35000000000000003],"min":[-0.55,0.63,-0.35000000000000003],"type":"VEC3"},{"bufferView":0,"byteOffset":288,"componentType":5126,"count":4,"max":[0.55,0.63,-0.35000000000000003],"min":[-0.55,0.6,-0.35000000000000003],"type":"VEC3"},{"bufferView":0,"byteOffset":336,"componentType":5126,"count":8,"max":[0.47000000000000003,0.6,0.2700000000000001],"min":[0.47000000000000003,0.3999999999999999,-0.27],"type":"VEC3"},{"bufferView":0,"byteOffset":432,"componentType":5126,"count":8,"max":[0.47000000000000003,0.6,-0.26999999999999996],"min":[-0.47000000000000003,0.3999999999999999,-0.27],"type":"VEC3"},{"bufferView":0,"byteOffset":528,"componentType":5126,"count":8,"max":[-0.47000000000000003,0.6,0.2700000000000001],"min":[-0.47000000000000003,0.3999999999999999,-0.27],"type":"VEC3"},{"bufferView":0,"byteOffset":624,"componentType":5126,"count":12,"max":[0.47000000000000003,0.6,0.2700000000000001],"min":[-0.47000000000000003,0.4,0.27],"type":"VEC3"},{"bufferView":0,"byteOffset":768,"componentType":5126,"count":4,"max":[0.47000000000000003,0.4,0.2700000000000001],"min":[0.4625,7.958078640513122e-16,0.21],"type":"VEC3"},{"bufferView":0,"byteOffset":816,"componentType":5126,"count":4,"max":[0.47000000000000003,0.465,0.21],"min":[0.41000000000000003,0.4,0.21],"type":"VEC3"},{"bufferView":0,"byteOffset":864,"componentType":5126,"count":12,"max":[0.47000000000000003,0.465,0.2700000000000001],"min":[-0.47000000000000003,0.4649999999999999,-0.26999999999999996],"type":"VEC3"},{"bufferView":0,"byteOffset":1008,"componentType":5126,"count":4,"max":[0.47000000000000003,0.4649999999999999,-0.21],"min":[0.41000000000000003,0.3999999999999999,-0.21],"type":"VEC3"},{"bufferView":0,"byteOffset":1056,"componentType":5126,"count":4,"max":[0.47000000000000003,0.3999999999999999,-0.21],"min":[0.4625,7.958078640513122e-16,-0.27],"type":"VEC3"},{"bufferView":0,"byteOffset":1104,"componentType":5126,"count":4,"max":[0.47000000000000003,0.3999999999999999,-0.2625],"min":[0.41000000000000003,-1.1368683772161603e-16,-0.27],"type":"VEC3"},{"bufferView":0,"byteOffset":1152,"componentType":5126,"count":4,"max":[0.41000000000000003,0.4649999999999999,-0.21],"min":[0.41000000000000003,0.3999999999999999,-0.27],"type":"VEC3"},{"bufferView":0,"byteOffset":1200,"componentType":5126,"count":4,"max":[-0.41000000000000003,0.4649999999999999,-0.21],"min":[-0.41000000000000003,0.3999999999999999,-0.27],"type":"VEC3"},{"bufferView":0,"byteOffset":1248,"componentType":5126,"count":4,"max":[-0.41000000000000003,0.3999999999999999,-0.2625],"min":[-0.47000000000000003,-2.2737367544323206e-16,-0.27],"type":"VEC3"},{"bufferView":0,"byteOffset":1296,"componentType":5126,"count":4,"max":[-0.4625,0.3999999999999999,-0.21],"min":[-0.47000000000000003,-3.410605131648481e-16,-0.27],"type":"VEC3"},{"bufferView":0,"byteOffset":1344,"componentType":5126,"count":4,"max":[-0.41000000000000003,0.4649999999999999,-0.21],"min":[-0.47000000000000003,0.3999999999999999,-0.21],"type":"VEC3"},{"bufferView":0,"byteOffset":1392,"componentType":5126,"count":4,"max":[-0.41000000000000003,0.465,0.21],"min":[-0.47000000000000003,0.4,0.21],"type":"VEC3"},{"bufferView":0,"byteOffset":1440,"componentType":5126,"count":4,"max":[-0.4625,0.4,0.2700000000000001],"min":[-0.47000000000000003,-3.410605131648481e-16,0.21],"type":"VEC3"},{"bufferView":0,"byteOffset":1488,"componentType":5126,"count":4,"max":[-0.41000000000000003,0.4,0.2700000000000001],"min":[-0.47000000000000003,-4.547473508864641e-16,0.2625000000000001],"type":"VEC3"},{"bufferView":0,"byteOffset":1536,"componentType":5126,"count":4,"max":[-0.41000000000000003,0.465,0.2700000000000001],"min":[-0.41000000000000003,0.4,0.21],"type":"VEC3"},{"bufferView":0,"byteOffset":1584,"componentType":5126,"count":4,"max":[0.41000000000000003,0.465,0.2700000000000001],"min":[0.41000000000000003,0.4,0.21],"type":"VEC3"},{"bufferView":0,"byteOffset":1632,"componentType":5126,"count":4,"max":[0.47000000000000003,0.4,0.2700000000000001],"min":[0.41000000000000003,-2.2737367544323206e-16,0.2625000000000001],"type":"VEC3"},{"bufferView":0,"byteOffset":1680,"componentType":5126,"count":4,"max":[0.25,0.5775,0.273],"min":[-0.25,0.5775,0.27],"type":"VEC3"},{"bufferView":0,"byteOffset":1728,"componentType":5126,"count":4,"max":[0.25,0.5775,0.273],"min":[0.24999999999999994,0.4875,0.27],"type":"VEC3"},{"bufferView":0,"byteOffset":1776,"componentType":5126,"count":4,"max":[0.24999999999999994,0.4875,0.273],"min":[-0.25,0.4875,0.27],"type":"VEC3"},{"bufferView":0,"byteOffset":1824,"componentType":5126,"count":4,"max":[-0.25,0.5775,0.273],"min":[-0.25,0.4875,0.27],"type":"VEC3"},{"bufferView":0,"byteOffset":1872,"componentType":5126,"count":4,"max":[0.4625,1.0231815394945444e-15,0.2625000000000001],"min":[0.4175,-2.2737367544323206e-16,0.2175],"type":"VEC3"},{"bufferView":0,"byteOffset":1920,"componentType":5126,"count":4,"max":[0.47000000000000003,0.4,0.2175],"min":[0.41000000000000003,0.0,0.21],"type":"VEC3"},{"bufferView":0,"byteOffset":1968,"componentType":5126,"count":4,"max":[0.47000000000000003,0.3999999999999999,-0.21],"min":[0.41000000000000003,-2.2737367544323206e-16,-0.21750000000000005],"type":"VEC3"},{"bufferView":0,"byteOffset":2016,"componentType":5126,"count":4,"max":[0.4625,9.094947017729283e-16,-0.21750000000000005],"min":[0.4175,-2.2737367544323206e-16,-0.2625],"type":"VEC3"},{"bufferView":0,"byteOffset":2064,"componentType":5126,"count":4,"max":[0.4175,0.3999999999999999,-0.21],"min":[0.41000000000000003,-2.2737367544323206e-16,-0.27],"type":"VEC3"},{"bufferView":0,"byteOffset":2112,"componentType":5126,"count":4,"max":[-0.41000000000000003,0.3999999999999999,-0.21],"min":[-0.4175,-4.547473508864641e-16,-0.27],"type":"VEC3"},{"bufferView":0,"byteOffset":2160,"componentType":5126,"count":4,"max":[-0.4175,-2.2737367544323206e-16,-0.21750000000000005],"min":[-0.4625,-4.547473508864641e-16,-0.2625],"type":"VEC3"},{"bufferView":0,"byteOffset":2208,"componentType":5126,"count":4,"max":[-0.41000000000000003,0.3999999999999999,-0.21],"min":[-0.47000000000000003,-4.547473508864641e-16,-0.21750000000000005],"type":"VEC3"},{"bufferView":0,"byteOffset":2256,"componentType":5126,"count":4,"max":[-0.41000000000000003,0.4,0.2175],"min":[-0.47000000000000003,-2.2737367544323206e-16,0.21],"type":"VEC3"},{"bufferView":0,"byteOffset":2304,"componentType":5126,"count":4,"max":[-0.4175,-1.1368683772161603e-16,0.2625000000000001],"min":[-0.4625,-4.547473508864641e-16,0.2175],"type":"VEC3"},{"bufferView":0,"byteOffset":2352,"componentType":5126,"count":4,"max":[-0.41000000000000003,0.4,0.2700000000000001],"min":[-0.4175,-4.547473508864641e-16,0.21],"type":"VEC3"},{"bufferView":0,"byteOffset":2400,"componentType":5126,"count":4,"max":[0.4175,0.4,0.2700000000000001],"min":[0.41000000000000003,-2.2737367544323206e-16,0.21],"type":"VEC3"},{"bufferView":0,"byteOffset":2448,"componentType":5126,"count":8,"max":[0.25,0.5775,0.273],"min":[-0.25,0.4875,0.273],"type":"VEC3"},{"bufferView":0,"byteOffset":2544,"componentType":5126,"count":4,"max":[0.055,0.5425,0.28300000000000003],"min":[-0.055,0.5425,0.273],"type":"VEC3"},{"bufferView":0,"byteOffset":2592,"componentType":5126,"count":4,"max":[0.055,0.5425,0.28300000000000003],"min":[0.054999999999999945,0.5225,0.273],"type":"VEC3"},{"bufferView":0,"byteOffset":2640,"componentType":5126,"count":4,"max":[0.054999999999999945,0.5225,0.28300000000000003],"min":[-0.055,0.5225,0.273],"type":"VEC3"},{"bufferView":0,"byteOffset":2688,"componentType":5126,"count":4,"max":[-0.055,0.5425,0.28300000000000003],"min":[-0.055,0.5225,0.273],"type":"VEC3"},{"bufferView":0,"byteOffset":2736,"componentType":5126,"count":4,"max":[0.055,0.5425,0.28300000000000003],"min":[-0.055,0.5225,0.28300000000000003],"type":"VEC3"},{"bufferView":1,"byteOffset":0,"componentType":5126,"count":4,"type":"VEC3"},{"bufferView":1,"byteOffset":48,"componentType":5126,"count":4,"type":"VEC3"},{"bufferView":1,"byteOffset":96,"componentType":5126,"count":4,"type":"VEC3"},{"bufferView":1,"byteOffset":144,"componentType":5126,"count":8,"type":"VEC3"},{"bufferView":1,"byteOffset":240,"componentType":5126,"count":4,"type":"VEC3"},{"bufferView":1,"byteOffset":288,"componentType":5126,"count":4,"type":"VEC3"},{"bufferView":1,"byteOffset":336,"componentType":5126,"count":8,"type":"VEC3"},{"bufferView":1,"byteOffset":432,"componentType":5126,"count":8,"type":"VEC3"},{"bufferView":1,"byteOffset":528,"componentType":5126,"count":8,"type":"VEC3"},{"bufferView":1,"byteOffset":624,"componentType":5126,"count":12,"type":"VEC3"},{"bufferView":1,"byteOffset":768,"componentType":5126,"count":4,"type":"VEC3"},{"bufferView":1,"byteOffset":816,"componentType":5126,"count":4,"type":"VEC3"},{"bufferView":1,"byteOffset":864,"componentType":5126,"count":12,"type":"VEC3"},{"bufferView":1,"byteOffset":1008,"componentType":5126,"count":4,"type":"VEC3"},{"bufferView":1,"byteOffset":1056,"componentType":5126,"count":4,"type":"VEC3"},{"bufferView":1,"byteOffset":1104,"componentType":5126,"count":4,"type":"VEC3"},{"bufferView":1,"byteOffset":1152,"componentType":5126,"count":4,"type":"VEC3"},{"bufferView":1,"byteOffset":1200,"componentType":5126,"count":4,"type":"VEC3"},{"bufferView":1,"byteOffset":1248,"componentType":5126,"count":4,"type":"VEC3"},{"bufferView":1,"byteOffset":1296,"componentType":5126,"count":4,"type":"VEC3"},{"bufferView":1,"byteOffset":1344,"componentType":5126,"count":4,"type":"VEC3"},{"bufferView":1,"byteOffset":1392,"componentType":5126,"count":4,"type":"VEC3"},{"bufferView":1,"byteOffset":1440,"componentType":5126,"count":4,"type":"VEC3"},{"bufferView":1,"byteOffset":1488,"componentType":5126,"count":4,"type":"VEC3"},{"bufferView":1,"byteOffset":1536,"componentType":5126,"count":4,"type":"VEC3"},{"bufferView":1,"byteOffset":1584,"componentType":5126,"count":4,"type":"VEC3"},{"bufferView":1,"byteOffset":1632,"componentType":5126,"count":4,"type":"VEC3"},{"bufferView":1,"byteOffset":1680,"componentType":5126,"count":4,"type":"VEC3"},{"bufferView":1,"byteOffset":1728,"componentType":5126,"count":4,"type":"VEC3"},{"bufferView":1,"byteOffset":1776,"componentType":5126,"count":4,"type":"VEC3"},{"bufferView":1,"byteOffset":1824,"componentType":5126,"count":4,"type":"VEC3"},{"bufferView":1,"byteOffset":1872,"componentType":5126,"count":4,"type":"VEC3"},{"bufferView":1,"byteOffset":1920,"componentType":5126,"count":4,"type":"VEC3"},{"bufferView":1,"byteOffset":1968,"componentType":5126,"count":4,"type":"VEC3"},{"bufferView":1,"byteOffset":2016,"componentType":5126,"count":4,"type":"VEC3"},{"bufferView":1,"byteOffset":2064,"componentType":5126,"count":4,"type":"VEC3"},{"bufferView":1,"byteOffset":2112,"componentType":5126,"count":4,"type":"VEC3"},{"bufferView":1,"byteOffset":2160,"componentType":5126,"count":4,"type":"VEC3"},{"bufferView":1,"byteOffset":2208,"componentType":5126,"count":4,"type":"VEC3"},{"bufferView":1,"byteOffset":2256,"componentType":5126,"count":4,"type":"VEC3"},{"bufferView":1,"byteOffset":2304,"componentType":5126,"count":4,"type":"VEC3"},{"bufferView":1,"byteOffset":2352,"componentType":5126,"count":4,"type":"VEC3"},{"bufferView":1,"byteOffset":2400,"componentType":5126,"count":4,"type":"VEC3"},{"bufferView":1,"byteOffset":2448,"componentType":5126,"count":8,"type":"VEC3"},{"bufferView":1,"byteOffset":2544,"componentType":5126,"count":4,"type":"VEC3"},{"bufferView":1,"byteOffset":2592,"componentType":5126,"count":4,"type":"VEC3"},{"bufferView":1,"byteOffset":2640,"componentType":5126,"count":4,"type":"VEC3"},{"bufferView":1,"byteOffset":2688,"componentType":5126,"count":4,"type":"VEC3"},{"bufferView":1,"byteOffset":2736,"componentType":5126,"count":4,"type":"VEC3"},{"bufferView":2,"byteOffset":0,"componentType":5123,"count":6,"type":"SCALAR"},{"bufferView":2,"byteOffset":12,"componentType":5123,"count":6,"type":"SCALAR"},{"bufferView":2,"byteOffset":24,"componentType":5123,"count":6,"type":"SCALAR"},{"bufferView":2,"byteOffset":36,"componentType":5123,"count":24,"type":"SCALAR"},{"bufferView":2,"byteOffset":84,"componentType":5123,"count":6,"type":"SCALAR"},{"bufferView":2,"byteOffset":96,"componentType":5123,"count":6,"type":"SCALAR"},{"bufferView":2,"byteOffset":108,"componentType":5123,"count":18,"type":"SCALAR"},{"bufferView":2,"byteOffset":144,"componentType":5123,"count":18,"type":"SCALAR"},{"bufferView":2,"byteOffset":180,"componentType":5123,"count":18,"type":"SCALAR"},{"bufferView":2,"byteOffset":216,"componentType":5123,"count":36,"type":"SCALAR"},{"bufferView":2,"byteOffset":288,"componentType":5123,"count":6,"type":"SCALAR"},{"bufferView":2,"byteOffset":300,"componentType":5123,"count":6,"type":"SCALAR"},{"bufferView":2,"byteOffset":312,"componentType":5123,"count":30,"type":"SCALAR"},{"bufferView":2,"byteOffset":372,"componentType":5123,"count":6,"type":"SCALAR"},{"bufferView":2,"byteOffset":384,"componentType":5123,"count":6,"type":"SCALAR"},{"bufferView":2,"byteOffset":396,"componentType":5123,"count":6,"type":"SCALAR"},{"bufferView":2,"byteOffset":408,"componentType":5123,"count":6,"type":"SCALAR"},{"bufferView":2,"byteOffset":420,"componentType":5123,"count":6,"type":"SCALAR"},{"bufferView":2,"byteOffset":432,"componentType":5123,"count":6,"type":"SCALAR"},{"bufferView":2,"byteOffset":444,"componentType":5123,"count":6,"type":"SCALAR"},{"bufferView":2,"byteOffset":456,"componentType":5123,"count":6,"type":"SCALAR"},{"bufferView":2,"byteOffset":468,"componentType":5123,"count":6,"type":"SCALAR"},{"bufferView":2,"byteOffset":480,"componentType":5123,"count":6,"type":"SCALAR"},{"bufferView":2,"byteOffset":492,"componentType":5123,"count":6,"type":"SCALAR"},{"bufferView":2,"byteOffset":504,"componentType":5123,"count":6,"type":"SCALAR"},{"bufferView":2,"byteOffset":516,"componentType":5123,"count":6,"type":"SCALAR"},{"bufferView":2,"byteOffset":528,"componentType":5123,"count":6,"type":"SCALAR"},{"bufferView":2,"byteOffset":540,"componentType":5123,"count":6,"type":"SCALAR"},{"bufferView":2,"byteOffset":552,"componentType":5123,"count":6,"type":"SCALAR"},{"bufferView":2,"byteOffset":564,"componentType":5123,"count":6,"type":"SCALAR"},{"bufferView":2,"byteOffset":576,"componentType":5123,"count":6,"type":"SCALAR"},{"bufferView":2,"byteOffset":588,"componentType":5123,"count":6,"type":"SCALAR"},{"bufferView":2,"byteOffset":600,"componentType":5123,"count":6,"type":"SCALAR"},{"bufferView":2,"byteOffset":612,"componentType":5123,"count":6,"type":"SCALAR"},{"bufferView":2,"byteOffset":624,"componentType":5123,"count":6,"type":"SCALAR"},{"bufferView":2,"byteOffset":636,"componentType":5123,"count":6,"type":"SCALAR"},{"bufferView":2,"byteOffset":648,"componentType":5123,"count":6,"type":"SCALAR"},{"bufferView":2,"byteOffset":660,"componentType":5123,"count":6,"type":"SCALAR"},{"bufferView":2,"byteOffset":672,"componentType":5123,"count":6,"type":"SCALAR"},{"bufferView":2,"byteOffset":684,"componentType":5123,"count":6,"type":"SCALAR"},{"bufferView":2,"byteOffset":696,"componentType":5123,"count":6,"type":"SCALAR"},{"bufferView":2,"byteOffset":708,"componentType":5123,"count":6,"type":"SCALAR"},{"bufferView":2,"byteOffset":720,"componentType":5123,"count":6,"type":"SCALAR"},{"bufferView":2,"byteOffset":732,"componentType":5123,"count":24,"type":"SCALAR"},{"bufferView":2,"byteOffset":780,"componentType":5123,"count":6,"type":"SCALAR"},{"bufferView":2,"byteOffset":792,"componentType":5123,"count":6,"type":"SCALAR"},{"bufferView":2,"byteOffset":804,"componentType":5123,"count":6,"type":"SCALAR"},{"bufferView":2,"byteOffset":816,"componentType":5123,"count":6,"type":"SCALAR"},{"bufferView":2,"byteOffset":828,"componentType":5123,"count":6,"type":"SCALAR"}],"asset":{"generator":"Open CASCADE Technology 7.8 [dev.opencascade.org]","version":"2.0"},"bufferViews":[{"buffer":0,"byteLength":2784,"byteOffset":0,"byteStride":12,"target":34962},{"buffer":0,"byteLength":2784,"byteOffset":2784,"byteStride":12,"target":34962},{"buffer":0,"byteLength":840,"byteOffset":5568,"target":34963}],"buffers":[{"byteLength":6408,"uri":"table.bin"}],"materials":[{"name":"mat_0","pbrMetallicRoughness":{"baseColorFactor":[0.7835378050804138,0.49102088809013367,0.12743768095970154,1.0]},"doubleSided":true}],"meshes":[{"name":"table_clone","primitives":[{"attributes":{"NORMAL":49,"POSITION":0},"indices":98,"material":0,"mode":4},{"attributes":{"NORMAL":50,"POSITION":1},"indices":99,"material":0,"mode":4},{"attributes":{"NORMAL":51,"POSITION":2},"indices":100,"material":0,"mode":4},{"attributes":{"NORMAL":52,"POSITION":3},"indices":101,"material":0,"mode":4},{"attributes":{"NORMAL":53,"POSITION":4},"indices":102,"material":0,"mode":4},{"attributes":{"NORMAL":54,"POSITION":5},"indices":103,"material":0,"mode":4},{"attributes":{"NORMAL":55,"POSITION":6},"indices":104,"material":0,"mode":4},{"attributes":{"NORMAL":56,"POSITION":7},"indices":105,"material":0,"mode":4},{"attributes":{"NORMAL":57,"POSITION":8},"indices":106,"material":0,"mode":4},{"attributes":{"NORMAL":58,"POSITION":9},"indices":107,"material":0,"mode":4},{"attributes":{"NORMAL":59,"POSITION":10},"indices":108,"material":0,"mode":4},{"attributes":{"NORMAL":60,"POSITION":11},"indices":109,"material":0,"mode":4},{"attributes":{"NORMAL":61,"POSITION":12},"indices":110,"material":0,"mode":4},{"attributes":{"NORMAL":62,"POSITION":13},"indices":111,"material":0,"mode":4},{"attributes":{"NORMAL":63,"POSITION":14},"indices":112,"material":0,"mode":4},{"attributes":{"NORMAL":64,"POSITION":15},"indices":113,"material":0,"mode":4},{"attributes":{"NORMAL":65,"POSITION":16},"indices":114,"material":0,"mode":4},{"attributes":{"NORMAL":66,"POSITION":17},"indices":115,"material":0,"mode":4},{"attributes":{"NORMAL":67,"POSITION":18},"indices":116,"material":0,"mode":4},{"attributes":{"NORMAL":68,"POSITION":19},"indices":117,"material":0,"mode":4},{"attributes":{"NORMAL":69,"POSITION":20},"indices":118,"material":0,"mode":4},{"attributes":{"NORMAL":70,"POSITION":21},"indices":119,"material":0,"mode":4},{"attributes":{"NORMAL":71,"POSITION":22},"indices":120,"material":0,"mode":4},{"attributes":{"NORMAL":72,"POSITION":23},"indices":121,"material":0,"mode":4},{"attributes":{"NORMAL":73,"POSITION":24},"indices":122,"material":0,"mode":4},{"attributes":{"NORMAL":74,"POSITION":25},"indices":123,"material":0,"mode":4},{"attributes":{"NORMAL":75,"POSITION":26},"indices":124,"material":0,"mode":4},{"attributes":{"NORMAL":76,"POSITION":27},"indices":125,"material":0,"mode":4},{"attributes":{"NORMAL":77,"POSITION":28},"indices":126,"material":0,"mode":4},{"attributes":{"NORMAL":78,"POSITION":29},"indices":127,"material":0,"mode":4},{"attributes":{"NORMAL":79,"POSITION":30},"indices":128,"material":0,"mode":4},{"attributes":{"NORMAL":80,"POSITION":31},"indices":129,"material":0,"mode":4},{"attributes":{"NORMAL":81,"POSITION":32},"indices":130,"material":0,"mode":4},{"attributes":{"NORMAL":82,"POSITION":33},"indices":131,"material":0,"mode":4},{"attributes":{"NORMAL":83,"POSITION":34},"indices":132,"material":0,"mode":4},{"attributes":{"NORMAL":84,"POSITION":35},"indices":133,"material":0,"mode":4},{"attributes":{"NORMAL":85,"POSITION":36},"indices":134,"material":0,"mode":4},{"attributes":{"NORMAL":86,"POSITION":37},"indices":135,"material":0,"mode":4},{"attributes":{"NORMAL":87,"POSITION":38},"indices":136,"material":0,"mode":4},{"attributes":{"NORMAL":88,"POSITION":39},"indices":137,"material":0,"mode":4},{"attributes":{"NORMAL":89,"POSITION":40},"indices":138,"material":0,"mode":4},{"attributes":{"NORMAL":90,"POSITION":41},"indices":139,"material":0,"mode":4},{"attributes":{"NORMAL":91,"POSITION":42},"indices":140,"material":0,"mode":4},{"attributes":{"NORMAL":92,"POSITION":43},"indices":141,"material":0,"mode":4},{"attributes":{"NORMAL":93,"POSITION":44},"indices":142,"material":0,"mode":4},{"attributes":{"NORMAL":94,"POSITION":45},"indices":143,"material":0,"mode":4},{"attributes":{"NORMAL":95,"POSITION":46},"indices":144,"material":0,"mode":4},{"attributes":{"NORMAL":96,"POSITION":47},"indices":145,"material":0,"mode":4},{"attributes":{"NORMAL":97,"POSITION":48},"indices":146,"material":0,"mode":4}]}],"nodes":[{"children":[1],"name":"table"},{"mesh":0,"name":"table_clone"}],"scene":0,"scenes":[{"nodes":[0]}]}