<?xml version='1.0' encoding='UTF-8' standalone='no'?>
<svg viewBox="0 0 2970 2100" xmlns:svg="http://www.w3.org/2000/svg" xmlns="http://www.w3.org/2000/svg" xmlns:dc="http://purl.org/dc/elements/1.1/" height="210mm" version="1.2" xmlns:freecad="https://www.freecad.org/wiki/index.php?title=Svg_Namespace" xmlns:cc="http://creativecommons.org/ns#" xmlns:xlink="http://www.w3.org/1999/xlink" xmlns:rdf="http://www.w3.org/1999/02/22-rdf-syntax-ns#" width="297mm" xmlns:sodipodi="http://sodipodi.sourceforge.net/DTD/sodipodi-0.dtd" baseProfile="tiny" xmlns:inkscape="http://www.inkscape.org/namespaces/inkscape">
 <title>FreeCAD SVG Export</title>
 <desc>Drawing page: Page exported from FreeCAD document: chair02_005</desc>
 <defs/>
 <g inkscape:groupmode="layer" inkscape:label="TechDraw" id="Page">
  <g transform="scale(10.000000, 10.000000)" style="stroke: none;" id="A4_Landscape_blank3.svg">
   <metadata id="metadata8">
    <rdf:RDF>
     <cc:Work rdf:about="">
      <dc:format>image/svg+xml</dc:format>
      <dc:type rdf:resource="http://purl.org/dc/dcmitype/StillImage"/>
     </cc:Work>
    </rdf:RDF>
   </metadata>
  </g>
  <g fill-rule="evenodd" fill="none" stroke="black" stroke-linecap="square" stroke-width="1" stroke-linejoin="bevel" id="DrawingContent">
   <g font-weight="400" font-style="normal" transform="matrix(1,0,0,1,1314.25,1021.03)" fill-opacity="1" fill="#ffffff" stroke="none" font-size="31.75" font-family="MS UI Gothic">
    <path fill-rule="evenodd" vector-effect="non-scaling-stroke" d="M-699.999,-768.333 L-703.188,-698.333 L-721.666,-292.698 L-721.666,-446.666 L-961.666,-446.666 L-961.666,446.666 L-755.346,446.666 L-769.999,768.333 L769.999,768.333 L755.346,446.666 L961.666,446.666 L961.666,-446.666 L721.666,-446.666 L721.666,-292.698 L703.188,-698.333 L699.999,-768.333 L-699.999,-768.333"/>
   </g>
   <g font-weight="400" font-style="normal" transform="matrix(1,0,0,1,1314.25,1021.03)" fill-opacity="1" fill="#ffffff" stroke="none" font-size="31.75" font-family="MS UI Gothic">
    <path fill-rule="evenodd" vector-effect="non-scaling-stroke" d="M721.666,-292.698 L721.666,446.666 L755.346,446.666 L769.999,768.333 L-769.999,768.333 L-755.346,446.666 L-721.666,446.666 L-721.666,-292.698 L-703.188,-698.333 L703.188,-698.333 L721.666,-292.698"/>
   </g>
   <g font-weight="400" font-style="normal" transform="matrix(1,0,0,1,1314.25,1021.03)" fill-opacity="1" fill="#ffffff" stroke="none" font-size="31.75" font-family="MS UI Gothic">
    <path fill-rule="evenodd" vector-effect="non-scaling-stroke" d="M721.666,-446.666 L721.666,-292.698 L721.666,446.666 L755.346,446.666 L961.666,446.666 L961.666,-446.666 L721.666,-446.666"/>
   </g>
   <g font-weight="400" font-style="normal" transform="matrix(1,0,0,1,1314.25,1021.03)" fill-opacity="1" fill="#ffffff" stroke="none" font-size="31.75" font-family="MS UI Gothic">
    <path fill-rule="evenodd" vector-effect="non-scaling-stroke" d="M-961.666,-446.666 L-961.666,446.666 L-755.346,446.666 L-721.666,446.666 L-721.666,-292.698 L-721.666,-446.666 L-961.666,-446.666"/>
   </g>
   <g font-weight="400" font-style="normal" transform="matrix(1,0,0,1,1314.25,1021.03)" fill-opacity="1" fill="#ffffff" stroke="none" font-size="31.75" font-family="MS UI Gothic">
    <path fill-rule="evenodd" vector-effect="non-scaling-stroke" d="M-699.999,-768.333 L-703.188,-698.333 L703.188,-698.333 L699.999,-768.333 L-699.999,-768.333"/>
   </g>
   <g font-weight="400" font-style="normal" transform="matrix(1,0,0,1,1314.25,1021.03)" fill="none" stroke="#000000" stroke-linecap="round" font-size="31.75" stroke-width="7" stroke-opacity="1" font-family="MS UI Gothic" stroke-linejoin="bevel">
    <path fill-rule="evenodd" vector-effect="none" d="M721.666,-446.666 L721.666,446.666"/>
   </g>
   <g font-weight="400" font-style="normal" transform="matrix(1,0,0,1,1314.25,1021.03)" fill="none" stroke="#000000" stroke-linecap="round" font-size="31.75" stroke-width="7" stroke-opacity="1" font-family="MS UI Gothic" stroke-linejoin="bevel">
    <path fill-rule="evenodd" vector-effect="none" d="M961.666,-446.666 L721.666,-446.666"/>
   </g>
   <g font-weight="400" font-style="normal" transform="matrix(1,0,0,1,1314.25,1021.03)" fill="none" stroke="#000000" stroke-linecap="round" font-size="31.75" stroke-width="7" stroke-opacity="1" font-family="MS UI Gothic" stroke-linejoin="bevel">
    <path fill-rule="evenodd" vector-effect="none" d="M721.666,446.666 L961.666,446.666"/>
   </g>
   <g font-weight="400" font-style="normal" transform="matrix(1,0,0,1,1314.25,1021.03)" fill="none" stroke="#000000" stroke-linecap="round" font-size="31.75" stroke-width="7" stroke-opacity="1" font-family="MS UI Gothic" stroke-linejoin="bevel">
    <path fill-rule="evenodd" vector-effect="none" d="M961.666,446.666 L961.666,-446.666"/>
   </g>
   <g font-weight="400" font-style="normal" transform="matrix(1,0,0,1,1314.25,1021.03)" fill="none" stroke="#000000" stroke-linecap="round" font-size="31.75" stroke-width="7" stroke-opacity="1" font-family="MS UI Gothic" stroke-linejoin="bevel">
    <path fill-rule="evenodd" vector-effect="none" d="M-961.666,-446.666 L-961.666,446.666"/>
   </g>
   <g font-weight="400" font-style="normal" transform="matrix(1,0,0,1,1314.25,1021.03)" fill="none" stroke="#000000" stroke-linecap="round" font-size="31.75" stroke-width="7" stroke-opacity="1" font-family="MS UI Gothic" stroke-linejoin="bevel">
    <path fill-rule="evenodd" vector-effect="none" d="M-721.666,-446.666 L-961.666,-446.666"/>
   </g>
   <g font-weight="400" font-style="normal" transform="matrix(1,0,0,1,1314.25,1021.03)" fill="none" stroke="#000000" stroke-linecap="round" font-size="31.75" stroke-width="7" stroke-opacity="1" font-family="MS UI Gothic" stroke-linejoin="bevel">
    <path fill-rule="evenodd" vector-effect="none" d="M-961.666,446.666 L-721.666,446.666"/>
   </g>
   <g font-weight="400" font-style="normal" transform="matrix(1,0,0,1,1314.25,1021.03)" fill="none" stroke="#000000" stroke-linecap="round" font-size="31.75" stroke-width="7" stroke-opacity="1" font-family="MS UI Gothic" stroke-linejoin="bevel">
    <path fill-rule="evenodd" vector-effect="none" d="M-721.666,446.666 L-721.666,-446.666"/>
   </g>
   <g font-weight="400" font-style="normal" transform="matrix(1,0,0,1,1314.25,1021.03)" fill="none" stroke="#000000" stroke-linecap="round" font-size="31.75" stroke-width="7" stroke-opacity="1" font-family="MS UI Gothic" stroke-linejoin="bevel">
    <path fill-rule="evenodd" vector-effect="none" d="M-769.999,768.333 L769.999,768.333"/>
   </g>
   <g font-weight="400" font-style="normal" transform="matrix(1,0,0,1,1314.25,1021.03)" fill="none" stroke="#000000" stroke-linecap="round" font-size="31.75" stroke-width="7" stroke-opacity="1" font-family="MS UI Gothic" stroke-linejoin="bevel">
    <path fill-rule="evenodd" vector-effect="none" d="M769.999,768.333 L755.346,446.666"/>
   </g>
   <g font-weight="400" font-style="normal" transform="matrix(1,0,0,1,1314.25,1021.03)" fill="none" stroke="#000000" stroke-linecap="round" font-size="31.75" stroke-width="7" stroke-opacity="1" font-family="MS UI Gothic" stroke-linejoin="bevel">
    <path fill-rule="evenodd" vector-effect="none" d="M721.666,-292.698 L703.188,-698.333"/>
   </g>
   <g font-weight="400" font-style="normal" transform="matrix(1,0,0,1,1314.25,1021.03)" fill="none" stroke="#000000" stroke-linecap="round" font-size="31.75" stroke-width="7" stroke-opacity="1" font-family="MS UI Gothic" stroke-linejoin="bevel">
    <path fill-rule="evenodd" vector-effect="none" d="M-703.188,-698.333 L-721.666,-292.698"/>
   </g>
   <g font-weight="400" font-style="normal" transform="matrix(1,0,0,1,1314.25,1021.03)" fill="none" stroke="#000000" stroke-linecap="round" font-size="31.75" stroke-width="7" stroke-opacity="1" font-family="MS UI Gothic" stroke-linejoin="bevel">
    <path fill-rule="evenodd" vector-effect="none" d="M-755.346,446.666 L-769.999,768.333"/>
   </g>
   <g font-weight="400" font-style="normal" transform="matrix(1,0,0,1,1314.25,1021.03)" fill="none" stroke="#000000" stroke-linecap="round" font-size="31.75" stroke-width="7" stroke-opacity="1" font-family="MS UI Gothic" stroke-linejoin="bevel">
    <path fill-rule="evenodd" vector-effect="none" d="M-703.188,-698.333 L703.188,-698.333"/>
   </g>
   <g font-weight="400" font-style="normal" transform="matrix(1,0,0,1,1314.25,1021.03)" fill="none" stroke="#000000" stroke-linecap="round" font-size="31.75" stroke-width="7" stroke-opacity="1" font-family="MS UI Gothic" stroke-linejoin="bevel">
    <path fill-rule="evenodd" vector-effect="none" d="M-699.999,-768.333 L699.999,-768.333"/>
   </g>
   <g font-weight="400" font-style="normal" transform="matrix(1,0,0,1,1314.25,1021.03)" fill="none" stroke="#000000" stroke-linecap="round" font-size="31.75" stroke-width="7" stroke-opacity="1" font-family="MS UI Gothic" stroke-linejoin="bevel">
    <path fill-rule="evenodd" vector-effect="none" d="M699.999,-768.333 L703.188,-698.333"/>
   </g>
   <g font-weight="400" font-style="normal" transform="matrix(1,0,0,1,1314.25,1021.03)" fill="none" stroke="#000000" stroke-linecap="round" font-size="31.75" stroke-width="7" stroke-opacity="1" font-family="MS UI Gothic" stroke-linejoin="bevel">
    <path fill-rule="evenodd" vector-effect="none" d="M-699.999,-768.333 L-703.188,-698.333"/>
   </g>
   <g stroke-dasharray="42,10.5" font-weight="400" font-style="normal" transform="matrix(1,0,0,1,1314.25,1021.03)" fill="none" stroke-dashoffset="0" stroke="#000000" stroke-linecap="round" font-size="31.75" stroke-width="3.5" stroke-opacity="1" font-family="MS UI Gothic" stroke-linejoin="bevel">
    <path fill-rule="evenodd" vector-effect="none" d="M416.666,0 C416.666,230.118 230.118,416.666 0,416.666 C-230.118,416.666 -416.666,230.118 -416.666,0 C-416.666,-230.118 -230.118,-416.666 0,-416.666 C230.118,-416.666 416.666,-230.118 416.666,0 "/>
   </g>
   <g stroke-dasharray="42,10.5" font-weight="400" font-style="normal" transform="matrix(1,0,0,1,1314.25,1021.03)" fill="none" stroke-dashoffset="0" stroke="#000000" stroke-linecap="round" font-size="31.75" stroke-width="3.5" stroke-opacity="1" font-family="MS UI Gothic" stroke-linejoin="bevel">
    <path fill-rule="evenodd" vector-effect="none" d="M83.3333,0 C83.3333,46.0237 46.0237,83.3333 0,83.3333 C-46.0237,83.3333 -83.3333,46.0237 -83.3333,0 C-83.3333,-46.0237 -46.0237,-83.3333 0,-83.3333 C46.0237,-83.3333 83.3333,-46.0237 83.3333,0 "/>
   </g>
   <g stroke-dasharray="42,10.5" font-weight="400" font-style="normal" transform="matrix(1,0,0,1,1314.25,1021.03)" fill="none" stroke-dashoffset="0" stroke="#000000" stroke-linecap="round" font-size="31.75" stroke-width="3.5" stroke-opacity="1" font-family="MS UI Gothic" stroke-linejoin="bevel">
    <path fill-rule="evenodd" vector-effect="none" d="M49.9999,0 C49.9999,27.6142 27.6142,49.9999 0,49.9999 C-27.6142,49.9999 -49.9999,27.6142 -49.9999,0 C-49.9999,-27.6142 -27.6142,-49.9999 0,-49.9999 C27.6142,-49.9999 49.9999,-27.6142 49.9999,0 "/>
   </g>
   <g stroke-dasharray="42,10.5" font-weight="400" font-style="normal" transform="matrix(1,0,0,1,1314.25,1021.03)" fill="none" stroke-dashoffset="0" stroke="#000000" stroke-linecap="round" font-size="31.75" stroke-width="3.5" stroke-opacity="1" font-family="MS UI Gothic" stroke-linejoin="bevel">
    <path fill-rule="evenodd" vector-effect="none" d="M-333.333,333.333 L333.333,333.333"/>
   </g>
   <g stroke-dasharray="42,10.5" font-weight="400" font-style="normal" transform="matrix(1,0,0,1,1314.25,1021.03)" fill="none" stroke-dashoffset="0" stroke="#000000" stroke-linecap="round" font-size="31.75" stroke-width="3.5" stroke-opacity="1" font-family="MS UI Gothic" stroke-linejoin="bevel">
    <path fill-rule="evenodd" vector-effect="none" d="M333.333,333.333 L333.333,-333.333"/>
   </g>
   <g stroke-dasharray="42,10.5" font-weight="400" font-style="normal" transform="matrix(1,0,0,1,1314.25,1021.03)" fill="none" stroke-dashoffset="0" stroke="#000000" stroke-linecap="round" font-size="31.75" stroke-width="3.5" stroke-opacity="1" font-family="MS UI Gothic" stroke-linejoin="bevel">
    <path fill-rule="evenodd" vector-effect="none" d="M333.333,-333.333 L-333.333,-333.333"/>
   </g>
   <g stroke-dasharray="42,10.5" font-weight="400" font-style="normal" transform="matrix(1,0,0,1,1314.25,1021.03)" fill="none" stroke-dashoffset="0" stroke="#000000" stroke-linecap="round" font-size="31.75" stroke-width="3.5" stroke-opacity="1" font-family="MS UI Gothic" stroke-linejoin="bevel">
    <path fill-rule="evenodd" vector-effect="none" d="M-333.333,-333.333 L-333.333,333.333"/>
   </g>
   <g stroke-dasharray="42,10.5" font-weight="400" font-style="normal" transform="matrix(1,0,0,1,1314.25,1021.03)" fill="none" stroke-dashoffset="0" stroke="#000000" stroke-linecap="round" font-size="31.75" stroke-width="3.5" stroke-opacity="1" font-family="MS UI Gothic" stroke-linejoin="bevel">
    <path fill-rule="evenodd" vector-effect="none" d="M-908.332,125 L908.332,125"/>
   </g>
   <g stroke-dasharray="42,10.5" font-weight="400" font-style="normal" transform="matrix(1,0,0,1,1314.25,1021.03)" fill="none" stroke-dashoffset="0" stroke="#000000" stroke-linecap="round" font-size="31.75" stroke-width="3.5" stroke-opacity="1" font-family="MS UI Gothic" stroke-linejoin="bevel">
    <path fill-rule="evenodd" vector-effect="none" d="M908.332,125 L908.332,-125"/>
   </g>
   <g stroke-dasharray="42,10.5" font-weight="400" font-style="normal" transform="matrix(1,0,0,1,1314.25,1021.03)" fill="none" stroke-dashoffset="0" stroke="#000000" stroke-linecap="round" font-size="31.75" stroke-width="3.5" stroke-opacity="1" font-family="MS UI Gothic" stroke-linejoin="bevel">
    <path fill-rule="evenodd" vector-effect="none" d="M908.332,-125 L-908.332,-125"/>
   </g>
   <g stroke-dasharray="42,10.5" font-weight="400" font-style="normal" transform="matrix(1,0,0,1,1314.25,1021.03)" fill="none" stroke-dashoffset="0" stroke="#000000" stroke-linecap="round" font-size="31.75" stroke-width="3.5" stroke-opacity="1" font-family="MS UI Gothic" stroke-linejoin="bevel">
    <path fill-rule="evenodd" vector-effect="none" d="M-908.332,-125 L-908.332,125"/>
   </g>
   <g stroke-dasharray="42,10.5" font-weight="400" font-style="normal" transform="matrix(1,0,0,1,1314.25,1021.03)" fill="none" stroke-dashoffset="0" stroke="#000000" stroke-linecap="round" font-size="31.75" stroke-width="3.5" stroke-opacity="1" font-family="MS UI Gothic" stroke-linejoin="bevel">
    <path fill-rule="evenodd" vector-effect="none" d="M721.666,-446.666 L721.666,446.666"/>
   </g>
   <g stroke-dasharray="42,10.5" font-weight="400" font-style="normal" transform="matrix(1,0,0,1,1314.25,1021.03)" fill="none" stroke-dashoffset="0" stroke="#000000" stroke-linecap="round" font-size="31.75" stroke-width="3.5" stroke-opacity="1" font-family="MS UI Gothic" stroke-linejoin="bevel">
    <path fill-rule="evenodd" vector-effect="none" d="M961.666,-446.666 L721.666,-446.666"/>
   </g>
   <g stroke-dasharray="42,10.5" font-weight="400" font-style="normal" transform="matrix(1,0,0,1,1314.25,1021.03)" fill="none" stroke-dashoffset="0" stroke="#000000" stroke-linecap="round" font-size="31.75" stroke-width="3.5" stroke-opacity="1" font-family="MS UI Gothic" stroke-linejoin="bevel">
    <path fill-rule="evenodd" vector-effect="none" d="M721.666,446.666 L961.666,446.666"/>
   </g>
   <g stroke-dasharray="42,10.5" font-weight="400" font-style="normal" transform="matrix(1,0,0,1,1314.25,1021.03)" fill="none" stroke-dashoffset="0" stroke="#000000" stroke-linecap="round" font-size="31.75" stroke-width="3.5" stroke-opacity="1" font-family="MS UI Gothic" stroke-linejoin="bevel">
    <path fill-rule="evenodd" vector-effect="none" d="M961.666,446.666 L961.666,-446.666"/>
   </g>
   <g stroke-dasharray="42,10.5" font-weight="400" font-style="normal" transform="matrix(1,0,0,1,1314.25,1021.03)" fill="none" stroke-dashoffset="0" stroke="#000000" stroke-linecap="round" font-size="31.75" stroke-width="3.5" stroke-opacity="1" font-family="MS UI Gothic" stroke-linejoin="bevel">
    <path fill-rule="evenodd" vector-effect="none" d="M774.999,-125 L774.999,125"/>
   </g>
   <g stroke-dasharray="42,10.5" font-weight="400" font-style="normal" transform="matrix(1,0,0,1,1314.25,1021.03)" fill="none" stroke-dashoffset="0" stroke="#000000" stroke-linecap="round" font-size="31.75" stroke-width="3.5" stroke-opacity="1" font-family="MS UI Gothic" stroke-linejoin="bevel">
    <path fill-rule="evenodd" vector-effect="none" d="M-774.999,125 L-774.999,-125"/>
   </g>
   <g stroke-dasharray="42,10.5" font-weight="400" font-style="normal" transform="matrix(1,0,0,1,1314.25,1021.03)" fill="none" stroke-dashoffset="0" stroke="#000000" stroke-linecap="round" font-size="31.75" stroke-width="3.5" stroke-opacity="1" font-family="MS UI Gothic" stroke-linejoin="bevel">
    <path fill-rule="evenodd" vector-effect="none" d="M-961.666,-446.666 L-961.666,446.666"/>
   </g>
   <g stroke-dasharray="42,10.5" font-weight="400" font-style="normal" transform="matrix(1,0,0,1,1314.25,1021.03)" fill="none" stroke-dashoffset="0" stroke="#000000" stroke-linecap="round" font-size="31.75" stroke-width="3.5" stroke-opacity="1" font-family="MS UI Gothic" stroke-linejoin="bevel">
    <path fill-rule="evenodd" vector-effect="none" d="M-721.666,-446.666 L-961.666,-446.666"/>
   </g>
   <g stroke-dasharray="42,10.5" font-weight="400" font-style="normal" transform="matrix(1,0,0,1,1314.25,1021.03)" fill="none" stroke-dashoffset="0" stroke="#000000" stroke-linecap="round" font-size="31.75" stroke-width="3.5" stroke-opacity="1" font-family="MS UI Gothic" stroke-linejoin="bevel">
    <path fill-rule="evenodd" vector-effect="none" d="M-961.666,446.666 L-721.666,446.666"/>
   </g>
   <g stroke-dasharray="42,10.5" font-weight="400" font-style="normal" transform="matrix(1,0,0,1,1314.25,1021.03)" fill="none" stroke-dashoffset="0" stroke="#000000" stroke-linecap="round" font-size="31.75" stroke-width="3.5" stroke-opacity="1" font-family="MS UI Gothic" stroke-linejoin="bevel">
    <path fill-rule="evenodd" vector-effect="none" d="M-721.666,446.666 L-721.666,-446.666"/>
   </g>
   <g stroke-dasharray="42,10.5" font-weight="400" font-style="normal" transform="matrix(1,0,0,1,1314.25,1021.03)" fill="none" stroke-dashoffset="0" stroke="#000000" stroke-linecap="round" font-size="31.75" stroke-width="3.5" stroke-opacity="1" font-family="MS UI Gothic" stroke-linejoin="bevel">
    <path fill-rule="evenodd" vector-effect="none" d="M-769.999,768.333 L769.999,768.333"/>
   </g>
   <g stroke-dasharray="42,10.5" font-weight="400" font-style="normal" transform="matrix(1,0,0,1,1314.25,1021.03)" fill="none" stroke-dashoffset="0" stroke="#000000" stroke-linecap="round" font-size="31.75" stroke-width="3.5" stroke-opacity="1" font-family="MS UI Gothic" stroke-linejoin="bevel">
    <path fill-rule="evenodd" vector-effect="none" d="M-699.999,-768.333 L-769.999,768.333"/>
   </g>
   <g stroke-dasharray="42,10.5" font-weight="400" font-style="normal" transform="matrix(1,0,0,1,1314.25,1021.03)" fill="none" stroke-dashoffset="0" stroke="#000000" stroke-linecap="round" font-size="31.75" stroke-width="3.5" stroke-opacity="1" font-family="MS UI Gothic" stroke-linejoin="bevel">
    <path fill-rule="evenodd" vector-effect="none" d="M769.999,768.333 L699.999,-768.333"/>
   </g>
   <g stroke-dasharray="42,10.5" font-weight="400" font-style="normal" transform="matrix(1,0,0,1,1314.25,1021.03)" fill="none" stroke-dashoffset="0" stroke="#000000" stroke-linecap="round" font-size="31.75" stroke-width="3.5" stroke-opacity="1" font-family="MS UI Gothic" stroke-linejoin="bevel">
    <path fill-rule="evenodd" vector-effect="none" d="M699.999,-768.333 L-699.999,-768.333"/>
   </g>
   <g stroke-dasharray="42,10.5" font-weight="400" font-style="normal" transform="matrix(1,0,0,1,1314.25,1021.03)" fill="none" stroke-dashoffset="0" stroke="#000000" stroke-linecap="round" font-size="31.75" stroke-width="3.5" stroke-opacity="1" font-family="MS UI Gothic" stroke-linejoin="bevel">
    <path fill-rule="evenodd" vector-effect="none" d="M-703.188,-698.333 L703.188,-698.333"/>
   </g>
   <g font-weight="400" font-style="normal" transform="matrix(1,0,0,1,437.086,369.914)" fill="none" stroke="#000000" stroke-linecap="square" font-size="31.75" stroke-width="1" stroke-opacity="1" font-family="MS UI Gothic" stroke-linejoin="bevel">
    <text font-weight="400" font-style="normal" fill-opacity="1" x="4" fill="#000000" stroke="none" font-size="67" font-family="osifont" y="92" xml:space="preserve">72</text>
   </g>
   <g font-weight="400" font-style="normal" transform="matrix(1,0,0,1,1314.25,1021.03)" fill="none" stroke="#000000" stroke-linecap="round" font-size="31.75" stroke-width="3.5" stroke-opacity="1" font-family="MS UI Gothic" stroke-linejoin="bevel">
    <path fill-rule="evenodd" vector-effect="none" d="M-961.666,-542.616 L-721.666,-542.616 M-721.666,-446.666 L-721.666,-570.616 M-961.666,-446.666 L-961.666,-570.616"/>
   </g>
   <g font-weight="400" font-style="normal" transform="matrix(1,0,0,1,592.586,478.414)" fill-opacity="1" fill="#000000" stroke="#000000" stroke-linecap="round" font-size="31.75" stroke-width="3.5" stroke-opacity="1" font-family="MS UI Gothic" stroke-linejoin="bevel">
    <path fill-rule="evenodd" vector-effect="none" d="M0,0 L-35,-5.83333 L-35,5.83333 L0,0"/>
   </g>
   <g font-weight="400" font-style="normal" transform="matrix(1,0,0,1,352.586,478.414)" fill-opacity="1" fill="#000000" stroke="#000000" stroke-linecap="round" font-size="31.75" stroke-width="3.5" stroke-opacity="1" font-family="MS UI Gothic" stroke-linejoin="bevel">
    <path fill-rule="evenodd" vector-effect="none" d="M0,0 L35,5.83333 L35,-5.83333 L0,0"/>
   </g>
   <g font-weight="400" font-style="normal" transform="matrix(0,-1,1,0,160.272,1074.53)" fill="none" stroke="#000000" stroke-linecap="square" font-size="31.75" stroke-width="1" stroke-opacity="1" font-family="MS UI Gothic" stroke-linejoin="bevel">
    <text font-weight="400" font-style="normal" fill-opacity="1" x="4" fill="#000000" stroke="none" font-size="67" font-family="osifont" y="92" xml:space="preserve">268</text>
   </g>
   <g font-weight="400" font-style="normal" transform="matrix(1,0,0,1,1314.25,1021.03)" fill="none" stroke="#000000" stroke-linecap="round" font-size="31.75" stroke-width="3.5" stroke-opacity="1" font-family="MS UI Gothic" stroke-linejoin="bevel">
    <path fill-rule="evenodd" vector-effect="none" d="M-1045.23,-446.666 L-1045.23,446.666 M-961.666,446.666 L-1073.23,446.666 M-961.666,-446.666 L-1073.23,-446.666"/>
   </g>
   <g font-weight="400" font-style="normal" transform="matrix(1,0,0,1,269.022,1467.7)" fill-opacity="1" fill="#000000" stroke="#000000" stroke-linecap="round" font-size="31.75" stroke-width="3.5" stroke-opacity="1" font-family="MS UI Gothic" stroke-linejoin="bevel">
    <path fill-rule="evenodd" vector-effect="none" d="M0,0 L5.83333,-35 L-5.83333,-35 L0,0"/>
   </g>
   <g font-weight="400" font-style="normal" transform="matrix(1,0,0,1,269.022,574.364)" fill-opacity="1" fill="#000000" stroke="#000000" stroke-linecap="round" font-size="31.75" stroke-width="3.5" stroke-opacity="1" font-family="MS UI Gothic" stroke-linejoin="bevel">
    <path fill-rule="evenodd" vector-effect="none" d="M0,0 L-5.83333,35 L5.83333,35 L0,0"/>
   </g>
  </g>
 </g>
</svg>
