{"accessors":[{"bufferView":0,"byteOffset":0,"componentType":5126,"count":228,"max":[0.58,0.78,0.20506091869412763],"min":[0.540007728850109,0.0,0.16506478330587238],"type":"VEC3"},{"bufferView":0,"byteOffset":2736,"componentType":5126,"count":113,"max":[0.58,0.0,0.20506091869412763],"min":[0.540007728850109,0.0,0.16506478330587238],"type":"VEC3"},{"bufferView":0,"byteOffset":4092,"componentType":5126,"count":113,"max":[0.58,0.78,0.20506091869412763],"min":[0.540007728850109,0.78,0.16506478330587238],"type":"VEC3"},{"bufferView":0,"byteOffset":5448,"componentType":5126,"count":228,"max":[0.58,0.78,-0.16500193230587237],"min":[0.540007728850109,0.0,-0.20499806769412762],"type":"VEC3"},{"bufferView":0,"byteOffset":8184,"componentType":5126,"count":113,"max":[0.58,0.0,-0.16500193230587237],"min":[0.540007728850109,0.0,-0.20499806769412762],"type":"VEC3"},{"bufferView":0,"byteOffset":9540,"componentType":5126,"count":113,"max":[0.58,0.78,-0.16500193230587237],"min":[0.540007728850109,0.78,-0.20499806769412762],"type":"VEC3"},{"bufferView":0,"byteOffset":10896,"componentType":5126,"count":228,"max":[-0.54,0.78,0.20499806769412762],"min":[-0.579992271149891,0.0,0.16500193230587237],"type":"VEC3"},{"bufferView":0,"byteOffset":13632,"componentType":5126,"count":113,"max":[-0.54,0.0,0.20499806769412762],"min":[-0.579992271149891,0.0,0.16500193230587237],"type":"VEC3"},{"bufferView":0,"byteOffset":14988,"componentType":5126,"count":113,"max":[-0.54,0.78,0.20499806769412762],"min":[-0.579992271149891,0.78,0.16500193230587237],"type":"VEC3"},{"bufferView":0,"byteOffset":16344,"componentType":5126,"count":228,"max":[-0.54,0.78,-0.16500193230587237],"min":[-0.579992271149891,0.0,-0.20499806769412762],"type":"VEC3"},{"bufferView":0,"byteOffset":19080,"componentType":5126,"count":113,"max":[-0.54,0.0,-0.16500193230587237],"min":[-0.579992271149891,0.0,-0.20499806769412762],"type":"VEC3"},{"bufferView":0,"byteOffset":20436,"componentType":5126,"count":113,"max":[-0.54,0.78,-0.16500193230587237],"min":[-0.579992271149891,0.78,-0.20499806769412762],"type":"VEC3"},{"bufferView":0,"byteOffset":21792,"componentType":5126,"count":4,"max":[-0.5700000000000001,0.22,0.195062851],"min":[-0.5700000000000001,0.18,-0.19500000000000003],"type":"VEC3"},{"bufferView":0,"byteOffset":21840,"componentType":5126,"count":4,"max":[0.5700000000000001,0.18,0.19506285100000004],"min":[-0.5700000000000001,0.18,-0.195],"type":"VEC3"},{"bufferView":0,"byteOffset":21888,"componentType":5126,"count":4,"max":[0.5700000000000001,0.22,0.19506285100000004],"min":[-0.5700000000000001,0.18,0.195062851],"type":"VEC3"},{"bufferView":0,"byteOffset":21936,"componentType":5126,"count":4,"max":[0.5700000000000001,0.22,0.195062851],"min":[-0.5700000000000001,0.22,-0.19500000000000003],"type":"VEC3"},{"bufferView":0,"byteOffset":21984,"componentType":5126,"count":4,"max":[0.5700000000000001,0.22,-0.195],"min":[-0.5700000000000001,0.18,-0.19500000000000003],"type":"VEC3"},{"bufferView":0,"byteOffset":22032,"componentType":5126,"count":4,"max":[0.5700000000000001,0.22,0.19506285100000004],"min":[0.5700000000000001,0.18,-0.19500000000000003],"type":"VEC3"},{"bufferView":0,"byteOffset":22080,"componentType":5126,"count":4,"max":[0.6,0.8,0.225],"min":[-0.6,0.76,0.225],"type":"VEC3"},{"bufferView":0,"byteOffset":22128,"componentType":5126,"count":4,"max":[0.6,0.76,0.225],"min":[-0.6,0.76,-0.225],"type":"VEC3"},{"bufferView":0,"byteOffset":22176,"componentType":5126,"count":4,"max":[0.6,0.8,0.225],"min":[0.6,0.76,-0.225],"type":"VEC3"},{"bufferView":0,"byteOffset":22224,"componentType":5126,"count":4,"max":[0.6,0.8,0.225],"min":[-0.6,0.8,-0.225],"type":"VEC3"},{"bufferView":0,"byteOffset":22272,"componentType":5126,"count":4,"max":[-0.6,0.8,0.225],"min":[-0.6,0.76,-0.225],"type":"VEC3"},{"bufferView":0,"byteOffset":22320,"componentType":5126,"count":4,"max":[0.6,0.8,-0.225],"min":[-0.6,0.76,-0.225],"type":"VEC3"},{"bufferView":1,"byteOffset":0,"componentType":5126,"count":228,"type":"VEC3"},{"bufferView":1,"byteOffset":2736,"componentType":5126,"count":113,"type":"VEC3"},{"bufferView":1,"byteOffset":4092,"componentType":5126,"count":113,"type":"VEC3"},{"bufferView":1,"byteOffset":5448,"componentType":5126,"count":228,"type":"VEC3"},{"bufferView":1,"byteOffset":8184,"componentType":5126,"count":113,"type":"VEC3"},{"bufferView":1,"byteOffset":9540,"componentType":5126,"count":113,"type":"VEC3"},{"bufferView":1,"byteOffset":10896,"componentType":5126,"count":228,"type":"VEC3"},{"bufferView":1,"byteOffset":13632,"componentType":5126,"count":113,"type":"VEC3"},{"bufferView":1,"byteOffset":14988,"componentType":5126,"count":113,"type":"VEC3"},{"bufferView":1,"byteOffset":16344,"componentType":5126,"count":228,"type":"VEC3"},{"bufferView":1,"byteOffset":19080,"componentType":5126,"count":113,"type":"VEC3"},{"bufferView":1,"byteOffset":20436,"componentType":5126,"count":113,"type":"VEC3"},{"bufferView":1,"byteOffset":21792,"componentType":5126,"count":4,"type":"VEC3"},{"bufferView":1,"byteOffset":21840,"componentType":5126,"count":4,"type":"VEC3"},{"bufferView":1,"byteOffset":21888,"componentType":5126,"count":4,"type":"VEC3"},{"bufferView":1,"byteOffset":21936,"componentType":5126,"count":4,"type":"VEC3"},{"bufferView":1,"byteOffset":21984,"componentType":5126,"count":4,"type":"VEC3"},{"bufferView":1,"byteOffset":22032,"componentType":5126,"count":4,"type":"VEC3"},{"bufferView":1,"byteOffset":22080,"componentType":5126,"count":4,"type":"VEC3"},{"bufferView":1,"byteOffset":22128,"componentType":5126,"count":4,"type":"VEC3"},{"bufferView":1,"byteOffset":22176,"componentType":5126,"count":4,"type":"VEC3"},{"bufferView":1,"byteOffset":22224,"componentType":5126,"count":4,"type":"VEC3"},{"bufferView":1,"byteOffset":22272,"componentType":5126,"count":4,"type":"VEC3"},{"bufferView":1,"byteOffset":22320,"componentType":5126,"count":4,"type":"VEC3"},{"bufferView":2,"byteOffset":0,"componentType":5123,"count":678,"type":"SCALAR"},{"bufferView":2,"byteOffset":1356,"componentType":5123,"count":333,"type":"SCALAR"},{"bufferView":2,"byteOffset":2024,"componentType":5123,"count":333,"type":"SCALAR"},{"bufferView":2,"byteOffset":2692,"componentType":5123,"count":678,"type":"SCALAR"},{"bufferView":2,"byteOffset":4048,"componentType":5123,"count":333,"type":"SCALAR"},{"bufferView":2,"byteOffset":4716,"componentType":5123,"count":333,"type":"SCALAR"},{"bufferView":2,"byteOffset":5384,"componentType":5123,"count":678,"type":"SCALAR"},{"bufferView":2,"byteOffset":6740,"componentType":5123,"count":333,"type":"SCALAR"},{"bufferView":2,"byteOffset":7408,"componentType":5123,"count":333,"type":"SCALAR"},{"bufferView":2,"byteOffset":8076,"componentType":5123,"count":678,"type":"SCALAR"},{"bufferView":2,"byteOffset":9432,"componentType":5123,"count":333,"type":"SCALAR"},{"bufferView":2,"byteOffset":10100,"componentType":5123,"count":333,"type":"SCALAR"},{"bufferView":2,"byteOffset":10768,"componentType":5123,"count":6,"type":"SCALAR"},{"bufferView":2,"byteOffset":10780,"componentType":5123,"count":6,"type":"SCALAR"},{"bufferView":2,"byteOffset":10792,"componentType":5123,"count":6,"type":"SCALAR"},{"bufferView":2,"byteOffset":10804,"componentType":5123,"count":6,"type":"SCALAR"},{"bufferView":2,"byteOffset":10816,"componentType":5123,"count":6,"type":"SCALAR"},{"bufferView":2,"byteOffset":10828,"componentType":5123,"count":6,"type":"SCALAR"},{"bufferView":2,"byteOffset":10840,"componentType":5123,"count":6,"type":"SCALAR"},{"bufferView":2,"byteOffset":10852,"componentType":5123,"count":6,"type":"SCALAR"},{"bufferView":2,"byteOffset":10864,"componentType":5123,"count":6,"type":"SCALAR"},{"bufferView":2,"byteOffset":10876,"componentType":5123,"count":6,"type":"SCALAR"},{"bufferView":2,"byteOffset":10888,"componentType":5123,"count":6,"type":"SCALAR"},{"bufferView":2,"byteOffset":10900,"componentType":5123,"count":6,"type":"SCALAR"}],"asset":{"generator":"Open CASCADE Technology 7.8 [dev.opencascade.org]","version":"2.0"},"bufferViews":[{"buffer":0,"byteLength":22368,"byteOffset":0,"byteStride":12,"target":34962},{"buffer":0,"byteLength":22368,"byteOffset":22368,"byteStride":12,"target":34962},{"buffer":0,"byteLength":10912,"byteOffset":44736,"target":34963}],"buffers":[{"byteLength":55648,"uri":"table02.bin"}],"materials":[{"name":"mat_0","pbrMetallicRoughness":{"baseColorFactor":[0.6038273572921753,0.6038273572921753,0.7912984490394592,1.0]},"doubleSided":true}],"meshes":[{"name":"foot1_clone","primitives":[{"attributes":{"NORMAL":24,"POSITION":0},"indices":48,"material":0,"mode":4},{"attributes":{"NORMAL":25,"POSITION":1},"indices":49,"material":0,"mode":4},{"attributes":{"NORMAL":26,"POSITION":2},"indices":50,"material":0,"mode":4}]},{"name":"foot2_clone","primitives":[{"attributes":{"NORMAL":27,"POSITION":3},"indices":51,"material":0,"mode":4},{"attributes":{"NORMAL":28,"POSITION":4},"indices":52,"material":0,"mode":4},{"attributes":{"NORMAL":29,"POSITION":5},"indices":53,"material":0,"mode":4}]},{"name":"foot3_clone","primitives":[{"attributes":{"NORMAL":30,"POSITION":6},"indices":54,"material":0,"mode":4},{"attributes":{"NORMAL":31,"POSITION":7},"indices":55,"material":0,"mode":4},{"attributes":{"NORMAL":32,"POSITION":8},"indices":56,"material":0,"mode":4}]},{"name":"foot4_clone","primitives":[{"attributes":{"NORMAL":33,"POSITION":9},"indices":57,"material":0,"mode":4},{"attributes":{"NORMAL":34,"POSITION":10},"indices":58,"material":0,"mode":4},{"attributes":{"NORMAL":35,"POSITION":11},"indices":59,"material":0,"mode":4}]},{"name":"plate1_clone","primitives":[{"attributes":{"NORMAL":36,"POSITION":12},"indices":60,"material":0,"mode":4},{"attributes":{"NORMAL":37,"POSITION":13},"indices":61,"material":0,"mode":4},{"attributes":{"NORMAL":38,"POSITION":14},"indices":62,"material":0,"mode":4},{"attributes":{"NORMAL":39,"POSITION":15},"indices":63,"material":0,"mode":4},{"attributes":{"NORMAL":40,"POSITION":16},"indices":64,"material":0,"mode":4},{"attributes":{"NORMAL":41,"POSITION":17},"indices":65,"material":0,"mode":4}]},{"name":"plate2_clone","primitives":[{"attributes":{"NORMAL":42,"POSITION":18},"indices":66,"material":0,"mode":4},{"attributes":{"NORMAL":43,"POSITION":19},"indices":67,"material":0,"mode":4},{"attributes":{"NORMAL":44,"POSITION":20},"indices":68,"material":0,"mode":4},{"attributes":{"NORMAL":45,"POSITION":21},"indices":69,"material":0,"mode":4},{"attributes":{"NORMAL":46,"POSITION":22},"indices":70,"material":0,"mode":4},{"attributes":{"NORMAL":47,"POSITION":23},"indices":71,"material":0,"mode":4}]}],"nodes":[{"children":[1,2,3,4,5,6],"name":"table02"},{"mesh":0,"name":"foot1_clone"},{"mesh":1,"name":"foot2_clone"},{"mesh":2,"name":"foot3_clone"},{"mesh":3,"name":"foot4_clone"},{"mesh":4,"name":"plate1_clone"},{"mesh":5,"name":"plate2_clone"}],"scene":0,"scenes":[{"nodes":[0]}]}