{"accessors":[{"bufferView":0,"byteOffset":0,"componentType":5126,"count":233,"max":[0.125,2.4868995751603507e-17,0.125],"min":[-0.125,-2.4868995751603507e-17,-0.12500000000000003],"type":"VEC3"},{"bufferView":0,"byteOffset":2796,"componentType":5126,"count":4,"max":[-0.125,0.0,0.1],"min":[-0.125,-0.01,-0.10000000000000003],"type":"VEC3"},{"bufferView":0,"byteOffset":2844,"componentType":5126,"count":60,"max":[-0.1,0.0,-0.10000000000000003],"min":[-0.125,-0.01,-0.12500000000000003],"type":"VEC3"},{"bufferView":0,"byteOffset":3564,"componentType":5126,"count":60,"max":[-0.1,0.0,0.125],"min":[-0.125,-0.01,0.1],"type":"VEC3"},{"bufferView":0,"byteOffset":4284,"componentType":5126,"count":4,"max":[0.1,0.0,-0.125],"min":[-0.1,-0.01,-0.12500000000000003],"type":"VEC3"},{"bufferView":0,"byteOffset":4332,"componentType":5126,"count":4,"max":[0.1,0.0,0.125],"min":[-0.1,-0.01,0.125],"type":"VEC3"},{"bufferView":0,"byteOffset":4380,"componentType":5126,"count":60,"max":[0.125,0.0,-0.1],"min":[0.1,-0.01,-0.125],"type":"VEC3"},{"bufferView":0,"byteOffset":5100,"componentType":5126,"count":60,"max":[0.125,0.0,0.125],"min":[0.1,-0.01,0.1],"type":"VEC3"},{"bufferView":0,"byteOffset":5820,"componentType":5126,"count":4,"max":[0.125,0.0,0.1],"min":[0.125,-0.01,-0.1],"type":"VEC3"},{"bufferView":0,"byteOffset":5868,"componentType":5126,"count":344,"max":[0.115,0.025000000000000015,0.11498888924123381],"min":[-0.11495555911187373,-2.4868995751603507e-17,-0.11498888924123382],"type":"VEC3"},{"bufferView":0,"byteOffset":9996,"componentType":5126,"count":518,"max":[0.085,0.12,0.08499178770004238],"min":[-0.0849671523870371,0.024999999999999988,-0.0849917877000424],"type":"VEC3"},{"bufferView":0,"byteOffset":16212,"componentType":5126,"count":228,"max":[0.07200000000000001,0.12,0.0719930436988594],"min":[-0.0719721761396079,0.11998644214132435,-0.07199304369885946],"type":"VEC3"},{"bufferView":0,"byteOffset":18948,"componentType":5126,"count":518,"max":[0.07190092334044725,0.21498644214132437,0.0718939766116272],"min":[-0.07187313776748769,0.11998644214132435,-0.07189397661162726],"type":"VEC3"},{"bufferView":0,"byteOffset":25164,"componentType":5126,"count":228,"max":[0.059000000000000004,0.215,0.058994299697676424],"min":[-0.0589771998921787,0.21498644214132437,-0.058994299697676535],"type":"VEC3"},{"bufferView":0,"byteOffset":27900,"componentType":5126,"count":576,"max":[0.059000000000000004,0.31,0.058994299697676424],"min":[-0.0589771998921787,0.215,-0.058994299697676535],"type":"VEC3"},{"bufferView":0,"byteOffset":34812,"componentType":5126,"count":228,"max":[0.046,0.31,0.045995555696493454],"min":[-0.04598222364474949,0.30998644214132437,-0.045995555696493606],"type":"VEC3"},{"bufferView":0,"byteOffset":37548,"componentType":5126,"count":634,"max":[0.04590092334044725,0.40498644214132434,0.04589648860926126],"min":[-0.045883185272629294,0.30998644214132437,-0.045896488609261404],"type":"VEC3"},{"bufferView":0,"byteOffset":45156,"componentType":5126,"count":228,"max":[0.033,0.405,0.03299681169531048],"min":[-0.03298724739732029,0.40498644214132434,-0.03299681169531067],"type":"VEC3"},{"bufferView":0,"byteOffset":47892,"componentType":5126,"count":750,"max":[0.033,0.5,0.03299681169531048],"min":[-0.03298724739732029,0.405,-0.03299681169531067],"type":"VEC3"},{"bufferView":0,"byteOffset":56892,"componentType":5126,"count":226,"max":[0.02,0.5,0.01999806769412751],"min":[-0.01999227114989108,0.5,-0.019998067694127732],"type":"VEC3"},{"bufferView":0,"byteOffset":59604,"componentType":5126,"count":808,"max":[0.0296209644531484,0.5,0.029618102614970394],"min":[-0.029609517653431408,0.4075655640263129,-0.029618102614970578],"type":"VEC3"},{"bufferView":0,"byteOffset":69300,"componentType":5126,"count":240,"max":[0.125,-0.01,0.125],"min":[-0.125,-0.01,-0.12500000000000003],"type":"VEC3"},{"bufferView":0,"byteOffset":72180,"componentType":5126,"count":4,"max":[-0.122,-0.003,0.1],"min":[-0.122,-0.01,-0.10000000000000005],"type":"VEC3"},{"bufferView":0,"byteOffset":72228,"componentType":5126,"count":233,"max":[0.122,-0.0029999999999999753,0.122],"min":[-0.122,-0.0030000000000000248,-0.12200000000000004],"type":"VEC3"},{"bufferView":0,"byteOffset":75024,"componentType":5126,"count":60,"max":[-0.1,-0.003,-0.10000000000000003],"min":[-0.122,-0.01,-0.12200000000000004],"type":"VEC3"},{"bufferView":0,"byteOffset":75744,"componentType":5126,"count":60,"max":[-0.1,-0.003,0.122],"min":[-0.122,-0.01,0.1],"type":"VEC3"},{"bufferView":0,"byteOffset":76464,"componentType":5126,"count":4,"max":[0.1,-0.003,-0.122],"min":[-0.1,-0.01,-0.12200000000000004],"type":"VEC3"},{"bufferView":0,"byteOffset":76512,"componentType":5126,"count":4,"max":[0.1,-0.003,0.122],"min":[-0.1,-0.01,0.122],"type":"VEC3"},{"bufferView":0,"byteOffset":76560,"componentType":5126,"count":60,"max":[0.122,-0.003,-0.1],"min":[0.1,-0.01,-0.122],"type":"VEC3"},{"bufferView":0,"byteOffset":77280,"componentType":5126,"count":60,"max":[0.122,-0.003,0.122],"min":[0.1,-0.01,0.1],"type":"VEC3"},{"bufferView":0,"byteOffset":78000,"componentType":5126,"count":4,"max":[0.122,-0.003,0.1],"min":[0.122,-0.01,-0.1],"type":"VEC3"},{"bufferView":0,"byteOffset":78048,"componentType":5126,"count":344,"max":[0.11391385019445599,0.02344031498101144,0.11390284437437219],"min":[-0.11386982904078188,-0.0030000000000000248,-0.11390284437437222],"type":"VEC3"},{"bufferView":0,"byteOffset":82176,"componentType":5126,"count":518,"max":[0.08218547221724228,0.11662096445314833,0.0821775318437128],"min":[-0.08215371225744741,0.02344031498101141,-0.08217753184371283],"type":"VEC3"},{"bufferView":0,"byteOffset":88392,"componentType":5126,"count":228,"max":[0.0694344359736867,0.11662096445314833,0.0694277275452678],"min":[-0.06940760355628481,0.11660740659447269,-0.06942772754526787],"type":"VEC3"},{"bufferView":0,"byteOffset":91128,"componentType":5126,"count":576,"max":[0.06933535931413395,0.21755200616763812,0.06932866045803561],"min":[-0.0693085651841646,0.11660740659447269,-0.06932866045803568],"type":"VEC3"},{"bufferView":0,"byteOffset":98040,"componentType":5126,"count":228,"max":[0.055620964453148285,0.21756556402631372,0.05561559061733622],"min":[-0.055599470148289705,0.2175520061676381,-0.05561559061733634],"type":"VEC3"},{"bufferView":0,"byteOffset":100776,"componentType":5126,"count":576,"max":[0.055620964453148285,0.3066209644531479,0.05561559061733622],"min":[-0.055599470148289705,0.21756556402631372,-0.05561559061733634],"type":"VEC3"},{"bufferView":0,"byteOffset":107688,"componentType":5126,"count":228,"max":[0.043434435973686764,0.3066209644531479,0.04343023954290192],"min":[-0.04341765106142647,0.3066074065944723,-0.04343023954290207],"type":"VEC3"},{"bufferView":0,"byteOffset":110424,"componentType":5126,"count":692,"max":[0.04333535931413401,0.40755200616763726,0.04333117245566973],"min":[-0.04331861268930627,0.3066074065944723,-0.043331172455669864],"type":"VEC3"},{"bufferView":0,"byteOffset":118728,"componentType":5126,"count":228,"max":[0.0296209644531484,0.40756556402631294,0.029618102614970394],"min":[-0.029609517653431408,0.4075520061676372,-0.029618102614970578],"type":"VEC3"},{"bufferView":1,"byteOffset":0,"componentType":5126,"count":233,"type":"VEC3"},{"bufferView":1,"byteOffset":2796,"componentType":5126,"count":4,"type":"VEC3"},{"bufferView":1,"byteOffset":2844,"componentType":5126,"count":60,"type":"VEC3"},{"bufferView":1,"byteOffset":3564,"componentType":5126,"count":60,"type":"VEC3"},{"bufferView":1,"byteOffset":4284,"componentType":5126,"count":4,"type":"VEC3"},{"bufferView":1,"byteOffset":4332,"componentType":5126,"count":4,"type":"VEC3"},{"bufferView":1,"byteOffset":4380,"componentType":5126,"count":60,"type":"VEC3"},{"bufferView":1,"byteOffset":5100,"componentType":5126,"count":60,"type":"VEC3"},{"bufferView":1,"byteOffset":5820,"componentType":5126,"count":4,"type":"VEC3"},{"bufferView":1,"byteOffset":5868,"componentType":5126,"count":344,"type":"VEC3"},{"bufferView":1,"byteOffset":9996,"componentType":5126,"count":518,"type":"VEC3"},{"bufferView":1,"byteOffset":16212,"componentType":5126,"count":228,"type":"VEC3"},{"bufferView":1,"byteOffset":18948,"componentType":5126,"count":518,"type":"VEC3"},{"bufferView":1,"byteOffset":25164,"componentType":5126,"count":228,"type":"VEC3"},{"bufferView":1,"byteOffset":27900,"componentType":5126,"count":576,"type":"VEC3"},{"bufferView":1,"byteOffset":34812,"componentType":5126,"count":228,"type":"VEC3"},{"bufferView":1,"byteOffset":37548,"componentType":5126,"count":634,"type":"VEC3"},{"bufferView":1,"byteOffset":45156,"componentType":5126,"count":228,"type":"VEC3"},{"bufferView":1,"byteOffset":47892,"componentType":5126,"count":750,"type":"VEC3"},{"bufferView":1,"byteOffset":56892,"componentType":5126,"count":226,"type":"VEC3"},{"bufferView":1,"byteOffset":59604,"componentType":5126,"count":808,"type":"VEC3"},{"bufferView":1,"byteOffset":69300,"componentType":5126,"count":240,"type":"VEC3"},{"bufferView":1,"byteOffset":72180,"componentType":5126,"count":4,"type":"VEC3"},{"bufferView":1,"byteOffset":72228,"componentType":5126,"count":233,"type":"VEC3"},{"bufferView":1,"byteOffset":75024,"componentType":5126,"count":60,"type":"VEC3"},{"bufferView":1,"byteOffset":75744,"componentType":5126,"count":60,"type":"VEC3"},{"bufferView":1,"byteOffset":76464,"componentType":5126,"count":4,"type":"VEC3"},{"bufferView":1,"byteOffset":76512,"componentType":5126,"count":4,"type":"VEC3"},{"bufferView":1,"byteOffset":76560,"componentType":5126,"count":60,"type":"VEC3"},{"bufferView":1,"byteOffset":77280,"componentType":5126,"count":60,"type":"VEC3"},{"bufferView":1,"byteOffset":78000,"componentType":5126,"count":4,"type":"VEC3"},{"bufferView":1,"byteOffset":78048,"componentType":5126,"count":344,"type":"VEC3"},{"bufferView":1,"byteOffset":82176,"componentType":5126,"count":518,"type":"VEC3"},{"bufferView":1,"byteOffset":88392,"componentType":5126,"count":228,"type":"VEC3"},{"bufferView":1,"byteOffset":91128,"componentType":5126,"count":576,"type":"VEC3"},{"bufferView":1,"byteOffset":98040,"componentType":5126,"count":228,"type":"VEC3"},{"bufferView":1,"byteOffset":100776,"componentType":5126,"count":576,"type":"VEC3"},{"bufferView":1,"byteOffset":107688,"componentType":5126,"count":228,"type":"VEC3"},{"bufferView":1,"byteOffset":110424,"componentType":5126,"count":692,"type":"VEC3"},{"bufferView":1,"byteOffset":118728,"componentType":5126,"count":228,"type":"VEC3"},{"bufferView":2,"byteOffset":0,"componentType":5123,"count":699,"type":"SCALAR"},{"bufferView":2,"byteOffset":1400,"componentType":5123,"count":6,"type":"SCALAR"},{"bufferView":2,"byteOffset":1412,"componentType":5123,"count":174,"type":"SCALAR"},{"bufferView":2,"byteOffset":1760,"componentType":5123,"count":174,"type":"SCALAR"},{"bufferView":2,"byteOffset":2108,"componentType":5123,"count":6,"type":"SCALAR"},{"bufferView":2,"byteOffset":2120,"componentType":5123,"count":6,"type":"SCALAR"},{"bufferView":2,"byteOffset":2132,"componentType":5123,"count":174,"type":"SCALAR"},{"bufferView":2,"byteOffset":2480,"componentType":5123,"count":174,"type":"SCALAR"},{"bufferView":2,"byteOffset":2828,"componentType":5123,"count":6,"type":"SCALAR"},{"bufferView":2,"byteOffset":2840,"componentType":5123,"count":1362,"type":"SCALAR"},{"bufferView":2,"byteOffset":5564,"componentType":5123,"count":2388,"type":"SCALAR"},{"bufferView":2,"byteOffset":10340,"componentType":5123,"count":678,"type":"SCALAR"},{"bufferView":2,"byteOffset":11696,"componentType":5123,"count":2388,"type":"SCALAR"},{"bufferView":2,"byteOffset":16472,"componentType":5123,"count":678,"type":"SCALAR"},{"bufferView":2,"byteOffset":17828,"componentType":5123,"count":2730,"type":"SCALAR"},{"bufferView":2,"byteOffset":23288,"componentType":5123,"count":678,"type":"SCALAR"},{"bufferView":2,"byteOffset":24644,"componentType":5123,"count":3072,"type":"SCALAR"},{"bufferView":2,"byteOffset":30788,"componentType":5123,"count":678,"type":"SCALAR"},{"bufferView":2,"byteOffset":32144,"componentType":5123,"count":3756,"type":"SCALAR"},{"bufferView":2,"byteOffset":39656,"componentType":5123,"count":678,"type":"SCALAR"},{"bufferView":2,"byteOffset":41012,"componentType":5123,"count":4098,"type":"SCALAR"},{"bufferView":2,"byteOffset":49208,"componentType":5123,"count":720,"type":"SCALAR"},{"bufferView":2,"byteOffset":50648,"componentType":5123,"count":6,"type":"SCALAR"},{"bufferView":2,"byteOffset":50660,"componentType":5123,"count":699,"type":"SCALAR"},{"bufferView":2,"byteOffset":52060,"componentType":5123,"count":174,"type":"SCALAR"},{"bufferView":2,"byteOffset":52408,"componentType":5123,"count":174,"type":"SCALAR"},{"bufferView":2,"byteOffset":52756,"componentType":5123,"count":6,"type":"SCALAR"},{"bufferView":2,"byteOffset":52768,"componentType":5123,"count":6,"type":"SCALAR"},{"bufferView":2,"byteOffset":52780,"componentType":5123,"count":174,"type":"SCALAR"},{"bufferView":2,"byteOffset":53128,"componentType":5123,"count":174,"type":"SCALAR"},{"bufferView":2,"byteOffset":53476,"componentType":5123,"count":6,"type":"SCALAR"},{"bufferView":2,"byteOffset":53488,"componentType":5123,"count":1362,"type":"SCALAR"},{"bufferView":2,"byteOffset":56212,"componentType":5123,"count":2388,"type":"SCALAR"},{"bufferView":2,"byteOffset":60988,"componentType":5123,"count":678,"type":"SCALAR"},{"bufferView":2,"byteOffset":62344,"componentType":5123,"count":2730,"type":"SCALAR"},{"bufferView":2,"byteOffset":67804,"componentType":5123,"count":678,"type":"SCALAR"},{"bufferView":2,"byteOffset":69160,"componentType":5123,"count":2730,"type":"SCALAR"},{"bufferView":2,"byteOffset":74620,"componentType":5123,"count":678,"type":"SCALAR"},{"bufferView":2,"byteOffset":75976,"componentType":5123,"count":3414,"type":"SCALAR"},{"bufferView":2,"byteOffset":82804,"componentType":5123,"count":678,"type":"SCALAR"}],"asset":{"generator":"Open CASCADE Technology 7.8 [dev.opencascade.org]","version":"2.0"},"bufferViews":[{"buffer":0,"byteLength":121464,"byteOffset":0,"byteStride":12,"target":34962},{"buffer":0,"byteLength":121464,"byteOffset":121464,"byteStride":12,"target":34962},{"buffer":0,"byteLength":84160,"byteOffset":242928,"target":34963}],"buffers":[{"byteLength":327088,"uri":"pylon.bin"}],"materials":[{"name":"mat_0","pbrMetallicRoughness":{"baseColorFactor":[0.6038273572921753,0.6038273572921753,0.791297972202301,1.0]},"doubleSided":true}],"meshes":[{"name":"pylon","primitives":[{"attributes":{"NORMAL":40,"POSITION":0},"indices":80,"material":0,"mode":4},{"attributes":{"NORMAL":41,"POSITION":1},"indices":81,"material":0,"mode":4},{"attributes":{"NORMAL":42,"POSITION":2},"indices":82,"material":0,"mode":4},{"attributes":{"NORMAL":43,"POSITION":3},"indices":83,"material":0,"mode":4},{"attributes":{"NORMAL":44,"POSITION":4},"indices":84,"material":0,"mode":4},{"attributes":{"NORMAL":45,"POSITION":5},"indices":85,"material":0,"mode":4},{"attributes":{"NORMAL":46,"POSITION":6},"indices":86,"material":0,"mode":4},{"attributes":{"NORMAL":47,"POSITION":7},"indices":87,"material":0,"mode":4},{"attributes":{"NORMAL":48,"POSITION":8},"indices":88,"material":0,"mode":4},{"attributes":{"NORMAL":49,"POSITION":9},"indices":89,"material":0,"mode":4},{"attributes":{"NORMAL":50,"POSITION":10},"indices":90,"material":0,"mode":4},{"attributes":{"NORMAL":51,"POSITION":11},"indices":91,"material":0,"mode":4},{"attributes":{"NORMAL":52,"POSITION":12},"indices":92,"material":0,"mode":4},{"attributes":{"NORMAL":53,"POSITION":13},"indices":93,"material":0,"mode":4},{"attributes":{"NORMAL":54,"POSITION":14},"indices":94,"material":0,"mode":4},{"attributes":{"NORMAL":55,"POSITION":15},"indices":95,"material":0,"mode":4},{"attributes":{"NORMAL":56,"POSITION":16},"indices":96,"material":0,"mode":4},{"attributes":{"NORMAL":57,"POSITION":17},"indices":97,"material":0,"mode":4},{"attributes":{"NORMAL":58,"POSITION":18},"indices":98,"material":0,"mode":4},{"attributes":{"NORMAL":59,"POSITION":19},"indices":99,"material":0,"mode":4},{"attributes":{"NORMAL":60,"POSITION":20},"indices":100,"material":0,"mode":4},{"attributes":{"NORMAL":61,"POSITION":21},"indices":101,"material":0,"mode":4},{"attributes":{"NORMAL":62,"POSITION":22},"indices":102,"material":0,"mode":4},{"attributes":{"NORMAL":63,"POSITION":23},"indices":103,"material":0,"mode":4},{"attributes":{"NORMAL":64,"POSITION":24},"indices":104,"material":0,"mode":4},{"attributes":{"NORMAL":65,"POSITION":25},"indices":105,"material":0,"mode":4},{"attributes":{"NORMAL":66,"POSITION":26},"indices":106,"material":0,"mode":4},{"attributes":{"NORMAL":67,"POSITION":27},"indices":107,"material":0,"mode":4},{"attributes":{"NORMAL":68,"POSITION":28},"indices":108,"material":0,"mode":4},{"attributes":{"NORMAL":69,"POSITION":29},"indices":109,"material":0,"mode":4},{"attributes":{"NORMAL":70,"POSITION":30},"indices":110,"material":0,"mode":4},{"attributes":{"NORMAL":71,"POSITION":31},"indices":111,"material":0,"mode":4},{"attributes":{"NORMAL":72,"POSITION":32},"indices":112,"material":0,"mode":4},{"attributes":{"NORMAL":73,"POSITION":33},"indices":113,"material":0,"mode":4},{"attributes":{"NORMAL":74,"POSITION":34},"indices":114,"material":0,"mode":4},{"attributes":{"NORMAL":75,"POSITION":35},"indices":115,"material":0,"mode":4},{"attributes":{"NORMAL":76,"POSITION":36},"indices":116,"material":0,"mode":4},{"attributes":{"NORMAL":77,"POSITION":37},"indices":117,"material":0,"mode":4},{"attributes":{"NORMAL":78,"POSITION":38},"indices":118,"material":0,"mode":4},{"attributes":{"NORMAL":79,"POSITION":39},"indices":119,"material":0,"mode":4}]}],"nodes":[{"children":[1],"name":"pylon2"},{"translation":[0.0,0.01,0.0],"mesh":0,"name":"pylon"}],"scene":0,"scenes":[{"nodes":[0]}]}