{"accessors":[{"bufferView":0,"byteOffset":0,"componentType":5126,"count":4,"max":[1.841,3.3306690738754695e-17,2.603],"min":[1.792,1.1102230246251566e-17,2.503],"type":"VEC3"},{"bufferView":0,"byteOffset":48,"componentType":5126,"count":8,"max":[1.841,2.1,2.503],"min":[0.9410000000000001,1.1102230246251566e-17,2.5029999999999997],"type":"VEC3"},{"bufferView":0,"byteOffset":144,"componentType":5126,"count":4,"max":[1.792,2.051,2.603],"min":[1.792,1.1102230246251566e-17,2.5029999999999997],"type":"VEC3"},{"bufferView":0,"byteOffset":192,"componentType":5126,"count":8,"max":[1.841,2.1,2.603],"min":[0.9410000000000001,3.3306690738754695e-17,2.6029999999999998],"type":"VEC3"},{"bufferView":0,"byteOffset":288,"componentType":5126,"count":4,"max":[1.841,2.1,2.603],"min":[1.841,1.1102230246251566e-17,2.5029999999999997],"type":"VEC3"},{"bufferView":0,"byteOffset":336,"componentType":5126,"count":4,"max":[1.841,2.1,2.6029999999999998],"min":[0.9410000000000001,2.1,2.5029999999999997],"type":"VEC3"},{"bufferView":0,"byteOffset":384,"componentType":5126,"count":4,"max":[0.9410000000000001,2.1,2.603],"min":[0.9410000000000001,1.1102230246251566e-17,2.5029999999999997],"type":"VEC3"},{"bufferView":0,"byteOffset":432,"componentType":5126,"count":4,"max":[0.99,3.3306690738754695e-17,2.603],"min":[0.9410000000000001,1.1102230246251566e-17,2.503],"type":"VEC3"},{"bufferView":0,"byteOffset":480,"componentType":5126,"count":4,"max":[0.99,2.051,2.603],"min":[0.99,1.1102230246251566e-17,2.5029999999999997],"type":"VEC3"},{"bufferView":0,"byteOffset":528,"componentType":5126,"count":4,"max":[1.792,2.051,2.6029999999999998],"min":[0.99,2.051,2.5029999999999997],"type":"VEC3"},{"bufferView":0,"byteOffset":576,"componentType":5126,"count":4,"max":[1.792000000000001,1.378262503042581e-16,3.0744037723385627],"min":[1.1137791078966692,2.4321696374324814e-17,2.5625491502812525],"type":"VEC3"},{"bufferView":0,"byteOffset":624,"componentType":5126,"count":4,"max":[1.1431683705112936,2.051,3.0744037723385627],"min":[1.1137791078966692,1.2884125593982823e-16,3.033952922619815],"type":"VEC3"},{"bufferView":0,"byteOffset":672,"componentType":5126,"count":4,"max":[1.7920000000000005,2.051,3.0744037723385627],"min":[1.1137791078966692,2.051,2.562549150281252],"type":"VEC3"},{"bufferView":0,"byteOffset":720,"componentType":5126,"count":4,"max":[1.792000000000001,2.051,2.6029999999999998],"min":[1.7626107373853774,2.4321696374324814e-17,2.562549150281252],"type":"VEC3"},{"bufferView":0,"byteOffset":768,"componentType":5126,"count":4,"max":[1.7626107373853774,2.051,3.033952922619816],"min":[1.1137791078966692,2.4321696374324814e-17,2.562549150281252],"type":"VEC3"},{"bufferView":0,"byteOffset":816,"componentType":5126,"count":4,"max":[1.7920000000000011,2.051,3.074403772338563],"min":[1.143168370511293,3.3306690738754646e-17,2.6029999999999998],"type":"VEC3"},{"bufferView":1,"byteOffset":0,"componentType":5126,"count":4,"type":"VEC3"},{"bufferView":1,"byteOffset":48,"componentType":5126,"count":8,"type":"VEC3"},{"bufferView":1,"byteOffset":144,"componentType":5126,"count":4,"type":"VEC3"},{"bufferView":1,"byteOffset":192,"componentType":5126,"count":8,"type":"VEC3"},{"bufferView":1,"byteOffset":288,"componentType":5126,"count":4,"type":"VEC3"},{"bufferView":1,"byteOffset":336,"componentType":5126,"count":4,"type":"VEC3"},{"bufferView":1,"byteOffset":384,"componentType":5126,"count":4,"type":"VEC3"},{"bufferView":1,"byteOffset":432,"componentType":5126,"count":4,"type":"VEC3"},{"bufferView":1,"byteOffset":480,"componentType":5126,"count":4,"type":"VEC3"},{"bufferView":1,"byteOffset":528,"componentType":5126,"count":4,"type":"VEC3"},{"bufferView":1,"byteOffset":576,"componentType":5126,"count":4,"type":"VEC3"},{"bufferView":1,"byteOffset":624,"componentType":5126,"count":4,"type":"VEC3"},{"bufferView":1,"byteOffset":672,"componentType":5126,"count":4,"type":"VEC3"},{"bufferView":1,"byteOffset":720,"componentType":5126,"count":4,"type":"VEC3"},{"bufferView":1,"byteOffset":768,"componentType":5126,"count":4,"type":"VEC3"},{"bufferView":1,"byteOffset":816,"componentType":5126,"count":4,"type":"VEC3"},{"bufferView":2,"byteOffset":0,"componentType":5123,"count":6,"type":"SCALAR"},{"bufferView":2,"byteOffset":12,"componentType":5123,"count":18,"type":"SCALAR"},{"bufferView":2,"byteOffset":48,"componentType":5123,"count":6,"type":"SCALAR"},{"bufferView":2,"byteOffset":60,"componentType":5123,"count":18,"type":"SCALAR"},{"bufferView":2,"byteOffset":96,"componentType":5123,"count":6,"type":"SCALAR"},{"bufferView":2,"byteOffset":108,"componentType":5123,"count":6,"type":"SCALAR"},{"bufferView":2,"byteOffset":120,"componentType":5123,"count":6,"type":"SCALAR"},{"bufferView":2,"byteOffset":132,"componentType":5123,"count":6,"type":"SCALAR"},{"bufferView":2,"byteOffset":144,"componentType":5123,"count":6,"type":"SCALAR"},{"bufferView":2,"byteOffset":156,"componentType":5123,"count":6,"type":"SCALAR"},{"bufferView":2,"byteOffset":168,"componentType":5123,"count":6,"type":"SCALAR"},{"bufferView":2,"byteOffset":180,"componentType":5123,"count":6,"type":"SCALAR"},{"bufferView":2,"byteOffset":192,"componentType":5123,"count":6,"type":"SCALAR"},{"bufferView":2,"byteOffset":204,"componentType":5123,"count":6,"type":"SCALAR"},{"bufferView":2,"byteOffset":216,"componentType":5123,"count":6,"type":"SCALAR"},{"bufferView":2,"byteOffset":228,"componentType":5123,"count":6,"type":"SCALAR"}],"asset":{"generator":"Open CASCADE Technology 7.8 [dev.opencascade.org]","version":"2.0"},"bufferViews":[{"buffer":0,"byteLength":864,"byteOffset":0,"byteStride":12,"target":34962},{"buffer":0,"byteLength":864,"byteOffset":864,"byteStride":12,"target":34962},{"buffer":0,"byteLength":240,"byteOffset":1728,"target":34963}],"buffers":[{"byteLength":1968,"uri":"door.bin"}],"materials":[{"name":"mat_0","pbrMetallicRoughness":{"baseColorFactor":[0.168269544839859,0.19120186567306519,0.21586069464683533,1.0]},"doubleSided":true}],"meshes":[{"name":"Door","primitives":[{"attributes":{"NORMAL":16,"POSITION":0},"indices":32,"material":0,"mode":4},{"attributes":{"NORMAL":17,"POSITION":1},"indices":33,"material":0,"mode":4},{"attributes":{"NORMAL":18,"POSITION":2},"indices":34,"material":0,"mode":4},{"attributes":{"NORMAL":19,"POSITION":3},"indices":35,"material":0,"mode":4},{"attributes":{"NORMAL":20,"POSITION":4},"indices":36,"material":0,"mode":4},{"attributes":{"NORMAL":21,"POSITION":5},"indices":37,"material":0,"mode":4},{"attributes":{"NORMAL":22,"POSITION":6},"indices":38,"material":0,"mode":4},{"attributes":{"NORMAL":23,"POSITION":7},"indices":39,"material":0,"mode":4},{"attributes":{"NORMAL":24,"POSITION":8},"indices":40,"material":0,"mode":4},{"attributes":{"NORMAL":25,"POSITION":9},"indices":41,"material":0,"mode":4},{"attributes":{"NORMAL":26,"POSITION":10},"indices":42,"material":0,"mode":4},{"attributes":{"NORMAL":27,"POSITION":11},"indices":43,"material":0,"mode":4},{"attributes":{"NORMAL":28,"POSITION":12},"indices":44,"material":0,"mode":4},{"attributes":{"NORMAL":29,"POSITION":13},"indices":45,"material":0,"mode":4},{"attributes":{"NORMAL":30,"POSITION":14},"indices":46,"material":0,"mode":4},{"attributes":{"NORMAL":31,"POSITION":15},"indices":47,"material":0,"mode":4}]}],"nodes":[{"mesh":0,"name":"Door"}],"scene":0,"scenes":[{"nodes":[0]}]}